<?xml version="1.0" encoding="UTF-8"?>
<svg version="1.1" xmlns="http://www.w3.org/2000/svg" width="1754" height="705">
<path d="M0 0 C0.89797302 -0.00012085 1.79594604 -0.0002417 2.72113037 -0.00036621 C17.52254199 0.02791527 31.65181294 1.04953014 46.125 4.375 C46.86234375 4.5404834 47.5996875 4.7059668 48.359375 4.87646484 C52.67295911 5.87073787 56.89534816 7.07356866 61.125 8.375 C62.21039062 8.6740625 63.29578125 8.973125 64.4140625 9.28125 C84.19432131 15.17514202 103.41436574 25.3246296 120.125 37.375 C120.70878418 37.79346191 121.29256836 38.21192383 121.89404297 38.64306641 C129.19247798 43.93169771 135.91627516 49.75524005 142.46875 55.9296875 C145.06883774 58.38246033 145.06883774 58.38246033 147.7734375 60.48046875 C151.37423734 63.38144536 154.14015419 66.85976571 157.125 70.375 C157.94097656 71.29152344 158.75695312 72.20804687 159.59765625 73.15234375 C183.44206639 100.14922855 198.44499551 133.39454158 206.125 168.375 C206.30434082 169.17679688 206.48368164 169.97859375 206.66845703 170.8046875 C213.87013223 204.78915675 209.96784538 242.71640449 199.125 275.375 C198.88523437 276.09864746 198.64546875 276.82229492 198.3984375 277.56787109 C194.88146394 287.95695301 190.2917902 297.71191909 185.125 307.375 C184.80273438 307.98085938 184.48046875 308.58671875 184.1484375 309.2109375 C178.37781574 319.95461541 171.43019953 329.63473397 164.125 339.375 C272.035 339.87 272.035 339.87 382.125 340.375 C382.125 329.815 382.125 319.255 382.125 308.375 C379.155 308.375 376.185 308.375 373.125 308.375 C353.44407871 306.85058182 336.2157904 300.39315746 322.125 286.375 C321.49851562 285.78332031 320.87203125 285.19164062 320.2265625 284.58203125 C302.99720205 266.92388581 301.95568474 241.00656251 302.02734375 217.8984375 C302.02921197 216.11911051 302.03063397 214.33978301 302.03163147 212.56045532 C302.03542481 207.90808661 302.04522744 203.25574979 302.05633545 198.60339355 C302.06661848 193.84367301 302.07114377 189.08394724 302.07617188 184.32421875 C302.08685297 175.00779859 302.10389054 165.69140196 302.125 156.375 C301.3729126 156.38023682 300.6208252 156.38547363 299.84594727 156.39086914 C296.45980658 156.41157227 293.07367916 156.42463877 289.6875 156.4375 C288.50349609 156.44587891 287.31949219 156.45425781 286.09960938 156.46289062 C284.97490234 156.46611328 283.85019531 156.46933594 282.69140625 156.47265625 C281.12821655 156.48051147 281.12821655 156.48051147 279.53344727 156.48852539 C277.125 156.375 277.125 156.375 276.125 155.375 C276.02574227 153.41675302 275.99700586 151.45490103 275.99560547 149.49414062 C275.99087723 147.6071344 275.99087723 147.6071344 275.98605347 145.68200684 C275.98784325 144.29842087 275.9898942 142.91483522 275.9921875 141.53125 C275.99151441 140.12259911 275.99054435 138.71394834 275.98928833 137.30529785 C275.98781158 134.34951677 275.98996517 131.39376586 275.99462891 128.43798828 C276.00032619 124.64125416 275.99704707 120.84459072 275.99105644 117.04785919 C275.98745021 114.13803572 275.9885897 111.22822912 275.99118423 108.31840515 C275.99185333 106.918106 275.99102568 105.51780533 275.98870468 104.11750793 C275.98617717 102.16362536 275.99070967 100.20973745 275.99560547 98.25585938 C275.99679886 96.58493225 275.99679886 96.58493225 275.99801636 94.88024902 C276.125 92.375 276.125 92.375 277.125 91.375 C278.97869611 91.28762355 280.83567541 91.26801847 282.69140625 91.27734375 C283.81611328 91.28056641 284.94082031 91.28378906 286.09960938 91.28710938 C287.28361328 91.29548828 288.46761719 91.30386719 289.6875 91.3125 C290.87537109 91.31701172 292.06324219 91.32152344 293.28710938 91.32617188 C296.23312226 91.33800325 299.17903681 91.35448713 302.125 91.375 C302.12055878 90.75303741 302.11611755 90.13107483 302.11154175 89.49026489 C302.0673976 83.03438609 302.03717082 76.57854995 302.01513672 70.12255859 C302.00506046 67.71108256 301.99139919 65.29961878 301.97412109 62.88818359 C301.9499441 59.42802915 301.93853331 55.9680358 301.9296875 52.5078125 C301.91936493 51.42444611 301.90904236 50.34107971 301.89840698 49.22488403 C301.89818039 47.72355423 301.89818039 47.72355423 301.89794922 46.19189453 C301.893508 45.30809113 301.88906677 44.42428772 301.88449097 43.51370239 C302.125 41.375 302.125 41.375 304.125 39.375 C307.16137695 39.12103271 307.16137695 39.12103271 311.11328125 39.11621094 C311.83212494 39.1127063 312.55096863 39.10920166 313.29159546 39.10559082 C315.67366116 39.09677035 318.05543115 39.10262364 320.4375 39.109375 C322.08894915 39.10802844 323.74039791 39.10608798 325.3918457 39.10357666 C328.85534433 39.10062497 332.3187399 39.10492443 335.78222656 39.11425781 C340.22795311 39.12565242 344.6734382 39.11909318 349.11915588 39.10711288 C352.53000721 39.09989546 355.94080102 39.10218166 359.35165405 39.10736847 C360.99116036 39.10870529 362.63067185 39.1070561 364.27017212 39.10240936 C366.55916226 39.097346 368.84775808 39.10505138 371.13671875 39.11621094 C373.09291138 39.11859772 373.09291138 39.11859772 375.08862305 39.12103271 C378.125 39.375 378.125 39.375 380.125 41.375 C380.36550903 43.51370239 380.36550903 43.51370239 380.35205078 46.19189453 C380.35189972 47.19278107 380.35174866 48.1936676 380.35159302 49.22488403 C380.34127045 50.30825043 380.33094788 51.39161682 380.3203125 52.5078125 C380.31606766 54.16827103 380.31606766 54.16827103 380.31173706 55.86227417 C380.30051519 59.40829137 380.27540691 62.95405875 380.25 66.5 C380.2399728 68.89973594 380.2308465 71.29947583 380.22265625 73.69921875 C380.20056932 79.59123151 380.16707207 85.48309791 380.125 91.375 C381.79054932 91.35928955 381.79054932 91.35928955 383.48974609 91.34326172 C387.60087879 91.30712051 391.71199739 91.28412104 395.82324219 91.26513672 C397.60419067 91.25506569 399.38512257 91.24140815 401.16601562 91.22412109 C403.72269783 91.19992087 406.27916185 91.18852816 408.8359375 91.1796875 C409.63494476 91.16936493 410.43395203 91.15904236 411.25717163 91.14840698 C413.2145722 91.14800774 415.17143077 91.25258931 417.125 91.375 C419.125 93.375 419.125 93.375 419.37223816 95.96253967 C419.37010063 97.60348854 419.37010063 97.60348854 419.36791992 99.27758789 C419.37099655 100.51549576 419.37407318 101.75340363 419.37724304 103.02882385 C419.37034583 104.3851032 419.3630789 105.74138071 419.35546875 107.09765625 C419.35427703 108.48245704 419.35382377 109.86725865 419.3540802 111.25205994 C419.35251518 114.15482642 419.34422339 117.05746961 419.33081055 119.96020508 C419.31380479 123.68853857 419.30999664 127.41673668 419.31075573 131.14510441 C419.31048437 134.00432131 419.30500887 136.86350837 419.29775429 139.72271538 C419.29456343 141.09789237 419.29259924 142.47307275 419.29186058 143.84825325 C419.28970235 145.76611668 419.28017294 147.6839676 419.27026367 149.60180664 C419.26645187 150.69497696 419.26264008 151.78814728 419.25871277 152.91444397 C419.125 155.375 419.125 155.375 418.125 156.375 C415.3133662 156.46361992 412.52641745 156.49022355 409.71484375 156.47265625 C408.87280899 156.4712413 408.03077423 156.46982635 407.16322327 156.46836853 C404.46294665 156.46275263 401.76275172 156.45019748 399.0625 156.4375 C397.23632932 156.43248705 395.41015734 156.42792379 393.58398438 156.42382812 C389.09762458 156.41277804 384.61132616 156.39550279 380.125 156.375 C380.20946149 166.31105817 380.30436751 176.24695682 380.41252708 186.18278694 C380.46242605 190.79663219 380.50875662 195.41045525 380.546875 200.02441406 C380.58380869 204.47896678 380.63019051 208.93333097 380.68306351 213.38772202 C380.70156454 215.08529216 380.71668827 216.78290265 380.72834396 218.4805336 C380.74528008 220.86238062 380.77433227 223.2437999 380.80615234 225.62548828 C380.80831253 226.32392349 380.81047272 227.0223587 380.81269836 227.74195862 C380.88468217 231.97283355 381.59021867 235.43551287 383.125 239.375 C390.82635516 241.23642374 398.28392464 241.74833095 406.1875 241.9375 C408.42850091 241.99710783 410.66940116 242.06068027 412.91015625 242.12890625 C414.37787476 242.16479858 414.37787476 242.16479858 415.87524414 242.20141602 C418.125 242.375 418.125 242.375 419.125 243.375 C419.22430533 245.36387494 419.25299462 247.35630417 419.25439453 249.34765625 C419.25912277 251.2646936 419.25912277 251.2646936 419.26394653 253.22045898 C419.26215675 254.62613967 419.2601058 256.03182005 419.2578125 257.4375 C419.25848558 258.86857113 419.25945564 260.29964215 419.26071167 261.73071289 C419.26218844 264.73357224 419.26003476 267.7364019 419.25537109 270.73925781 C419.24967381 274.59652571 419.25295292 278.45372404 419.25894356 282.31098938 C419.26254974 285.26713591 419.26141032 288.22326583 419.25881577 291.17941284 C419.25814665 292.60204069 419.25897437 294.02467003 419.26129532 295.44729614 C419.26382274 297.43231174 419.25929042 299.41733259 419.25439453 301.40234375 C419.25320114 303.09991821 419.25320114 303.09991821 419.25198364 304.83178711 C419.125 307.375 419.125 307.375 418.125 308.375 C415.98113343 308.53358842 413.83233162 308.62629298 411.68359375 308.69140625 C410.37841797 308.73330078 409.07324219 308.77519531 407.72851562 308.81835938 C406.3398467 308.85817608 404.95117478 308.89788825 403.5625 308.9375 C402.16990817 308.98067989 400.77732972 309.024294 399.38476562 309.06835938 C395.96495199 309.17485876 392.54506237 309.27686923 389.125 309.375 C398.54600879 318.13283878 398.54600879 318.13283878 408.16796875 326.66796875 C410.5105915 328.71133431 412.81773422 330.79180859 415.125 332.875 C418.10562721 335.56483431 421.09745233 338.23810364 424.125 340.875 C428.02012811 344.26753093 431.85282763 347.72694201 435.6875 351.1875 C438.45239828 353.66881897 441.24830719 356.11211721 444.05078125 358.55078125 C447.31051949 361.41763202 450.51910784 364.34088484 453.73046875 367.26171875 C456.13488609 369.38372492 458.60511097 371.39220988 461.125 373.375 C460.5493719 376.75584042 459.54760379 378.28743437 457.02734375 380.58203125 C456.39465576 381.16509033 455.76196777 381.74814941 455.11010742 382.34887695 C454.43439697 382.95562256 453.75868652 383.56236816 453.0625 384.1875 C452.37583252 384.81551514 451.68916504 385.44353027 450.98168945 386.09057617 C447.03535513 389.68891088 443.05861343 393.25321142 439.01171875 396.73828125 C436.68841213 398.75373772 434.40751535 400.81348462 432.125 402.875 C428.50823655 406.13890848 424.86110392 409.36290949 421.1875 412.5625 C418.81535571 414.64711164 416.46943935 416.75928644 414.125 418.875 C410.51095942 422.13645125 406.86710646 425.35859155 403.1953125 428.5546875 C400.77672039 430.6812232 398.38846037 432.83969106 396 435 C395.16082031 435.7528125 394.32164062 436.505625 393.45703125 437.28125 C392.05097008 438.54364328 390.65066081 439.81254558 389.26171875 441.09375 C387.6875 442.5 387.6875 442.5 385.125 444.375 C384.135 444.045 383.145 443.715 382.125 443.375 C382.125 433.475 382.125 423.575 382.125 413.375 C227.355 413.375 72.585 413.375 -86.875 413.375 C-86.83537679 497.90906078 -86.83537679 497.90906078 -86.78491211 582.44311523 C-86.78039551 598.7520752 -86.78039551 598.7520752 -86.77955627 606.37464905 C-86.77862049 611.72544291 -86.77493867 617.07622674 -86.76942444 622.42701721 C-86.76241566 629.23806186 -86.76050227 636.04909193 -86.76192772 642.86013997 C-86.76162935 645.36867577 -86.75962573 647.87721205 -86.75578487 650.38574493 C-86.75086081 653.75652581 -86.75199162 657.12724962 -86.75474548 660.49803162 C-86.75183282 661.49480958 -86.74892015 662.49158754 -86.74591923 663.5185709 C-86.7479101 664.41607752 -86.74990097 665.31358414 -86.75195217 666.23828793 C-86.75157245 667.0186132 -86.75119273 667.79893848 -86.7508015 668.60290998 C-86.875 670.375 -86.875 670.375 -87.875 671.375 C-89.2767833 671.47262523 -90.68344453 671.50131658 -92.08862305 671.50198364 C-92.99728119 671.50480347 -93.90593933 671.50762329 -94.84213257 671.51052856 C-95.84684601 671.50850433 -96.85155945 671.5064801 -97.88671875 671.50439453 C-98.9386441 671.50614685 -99.99056946 671.50789917 -101.07437134 671.50970459 C-104.57043074 671.51412543 -108.06644003 671.51118429 -111.5625 671.5078125 C-113.98006195 671.50848547 -116.39762383 671.50945544 -118.81518555 671.51071167 C-123.88949221 671.51218896 -128.96378131 671.51003309 -134.03808594 671.50537109 C-140.55884703 671.4996738 -147.07956696 671.50295263 -153.60032654 671.50894356 C-158.59468906 671.51254833 -163.58904174 671.51141097 -168.58340454 671.50881577 C-170.98849492 671.50814626 -173.39358618 671.50897572 -175.79867554 671.51129532 C-179.15356835 671.51382048 -182.5083935 671.50998317 -185.86328125 671.50439453 C-186.86799469 671.50641876 -187.87270813 671.50844299 -188.90786743 671.51052856 C-189.81652557 671.50770874 -190.72518372 671.50488892 -191.66137695 671.50198364 C-192.45558548 671.50160662 -193.24979401 671.50122959 -194.06806946 671.50084114 C-195.875 671.375 -195.875 671.375 -196.875 670.375 C-196.97336431 668.58277092 -197.00055623 666.78661792 -197.00084114 664.99169159 C-197.00344889 663.81641293 -197.00605664 662.64113427 -197.00874341 661.43024111 C-197.00651268 660.12258649 -197.00428196 658.81493188 -197.00198364 657.46765137 C-197.0031345 656.07744287 -197.00472179 654.68723467 -197.00671089 653.29702711 C-197.01090903 649.45887852 -197.00881135 645.6207546 -197.00572467 641.78260589 C-197.00347275 637.65032132 -197.00694914 633.51804115 -197.00970459 629.38575745 C-197.01416352 621.28352001 -197.01318528 613.18129181 -197.01029195 605.079054 C-197.0080384 598.49727688 -197.00772518 591.91550237 -197.00881577 585.33372498 C-197.008969 584.39885245 -197.00912223 583.46397993 -197.00928011 582.50077793 C-197.00959982 580.60191619 -197.00992403 578.70305446 -197.0102527 576.80419272 C-197.01310785 558.97646484 -197.00981992 541.1487421 -197.00445233 523.32101506 C-196.99998426 508.00648794 -197.00076019 492.69196839 -197.00537109 477.37744141 C-197.01071624 459.61580102 -197.01283316 441.85416513 -197.00975883 424.09252405 C-197.00944026 422.20044104 -197.00912589 420.30835803 -197.00881577 418.41627502 C-197.00858435 417.01967083 -197.00858435 417.01967083 -197.00834826 415.59485242 C-197.00748293 409.01696412 -197.00894634 402.43907866 -197.01129532 395.8611908 C-197.01409285 387.85071306 -197.01335605 379.84024514 -197.00801457 371.82976854 C-197.00537692 367.73859389 -197.00437356 363.64743561 -197.00766373 359.55626106 C-197.0106254 355.81714925 -197.00903606 352.07806913 -197.00368617 348.33896023 C-197.00202521 346.33255976 -197.0053207 344.32615713 -197.00874341 342.31975889 C-197.00483178 340.5568409 -197.00483178 340.5568409 -197.00084114 338.75830841 C-197.00067879 337.73550419 -197.00051644 336.71269998 -197.00034916 335.65890169 C-196.875 333.375 -196.875 333.375 -195.875 332.375 C-192.95699384 332.27793494 -190.06257541 332.246824 -187.1441803 332.25715637 C-186.21680901 332.25645179 -185.28943773 332.25574721 -184.33396429 332.25502127 C-181.20057067 332.25370425 -178.06722643 332.25940416 -174.93383789 332.26489258 C-172.69691467 332.26513454 -170.45999134 332.26485801 -168.22306824 332.26409912 C-163.39016951 332.26298975 -158.55728025 332.26443377 -153.7243824 332.26746559 C-146.07001385 332.27109129 -138.41569495 332.26197099 -130.76133728 332.24967957 C-129.46994262 332.24765764 -128.17854797 332.24563571 -126.84802014 332.24355251 C-124.20608579 332.23938329 -121.56415149 332.23518053 -118.92221725 332.23094499 C-112.12205578 332.22013366 -105.32189336 332.21033576 -98.52172852 332.2019043 C-97.83917421 332.20105305 -97.1566199 332.2002018 -96.45338213 332.19932475 C-85.43368723 332.18615193 -74.41406502 332.19109334 -63.39437098 332.20197586 C-52.06466637 332.21264845 -40.73518118 332.19988599 -29.40550226 332.16789359 C-23.05108132 332.15079392 -16.6970603 332.1443656 -10.34263802 332.164011 C-4.34983701 332.18236718 1.64227887 332.17242968 7.63502312 332.14175415 C9.82214851 332.13543652 12.00933205 332.1391237 14.19641495 332.15415001 C31.12279787 332.26170505 45.77699667 329.588066 60.75 321.25 C61.43545898 320.87584961 62.12091797 320.50169922 62.82714844 320.11621094 C80.95729437 309.90192735 96.09127281 295.99861533 107.125 278.375 C108.06279297 276.91126953 108.06279297 276.91126953 109.01953125 275.41796875 C125.96773731 247.83559419 131.51141783 213.40637147 124.71582031 181.82568359 C116.43002221 147.4567409 97.09629516 119.71098015 67.34765625 100.58984375 C39.77649872 83.75108311 4.70172047 77.38823476 -26.86279297 84.87890625 C-27.52682129 85.04261719 -28.19084961 85.20632812 -28.875 85.375 C-29.91164795 85.62443359 -29.91164795 85.62443359 -30.96923828 85.87890625 C-50.91079089 90.8196901 -68.12519276 100.25467865 -83.875 113.375 C-84.48988281 113.85453125 -85.10476563 114.3340625 -85.73828125 114.828125 C-97.39879025 124.1565322 -106.34766653 137.9647692 -113.0625 151.1875 C-113.35906494 151.76588623 -113.65562988 152.34427246 -113.96118164 152.94018555 C-117.49712082 160.17327107 -120.10522552 167.82539924 -122.875 175.375 C-121.83794922 175.31441406 -120.80089844 175.25382813 -119.73242188 175.19140625 C-115.80380574 174.96313452 -111.87486072 174.74099715 -107.94580078 174.52050781 C-106.26048718 174.42511874 -104.57526101 174.32816915 -102.89013672 174.22949219 C-91.86859138 173.58541858 -80.91678924 173.23707342 -69.875 173.375 C-69.875 177.9802146 -70.45374258 178.55491568 -73.3125 181.9375 C-74.04984375 182.82308594 -74.7871875 183.70867187 -75.546875 184.62109375 C-76.31515625 185.52988281 -77.0834375 186.43867188 -77.875 187.375 C-79.27354224 189.08111637 -80.66932861 190.78949512 -82.0625 192.5 C-82.81402344 193.41652344 -83.56554687 194.33304688 -84.33984375 195.27734375 C-87.27848639 198.86406099 -90.20185606 202.46314845 -93.125 206.0625 C-93.67341553 206.73772705 -94.22183105 207.4129541 -94.78686523 208.10864258 C-96.4830591 210.19730749 -98.17906342 212.28612617 -99.875 214.375 C-106.40924231 222.42318289 -112.94642548 230.46858329 -119.515625 238.48828125 C-123.50859007 243.37371368 -127.48430306 248.27314759 -131.4609375 253.171875 C-133.75476832 255.99728364 -136.05187315 258.81998298 -138.3515625 261.640625 C-143.93603017 268.49382013 -149.50785122 275.34891432 -154.875 282.375 C-158.85587165 280.77322218 -161.52993174 277.99269406 -164.48828125 274.9921875 C-165.02092087 274.45908966 -165.55356049 273.92599182 -166.1023407 273.3767395 C-167.22839921 272.24766483 -168.3520312 271.11616559 -169.47338867 269.98242188 C-171.16608744 268.27164129 -172.86647489 266.56882508 -174.56835938 264.8671875 C-183.52216949 255.88322766 -183.52216949 255.88322766 -187.38671875 251.3515625 C-192.3594948 245.52981304 -197.9316386 240.25172742 -203.375 234.875 C-215.65025274 222.75001267 -215.65025274 222.75001267 -220.99707031 216.47558594 C-225.42923197 211.51792618 -230.26903444 206.92098954 -235 202.25 C-237.13060252 200.14622965 -239.25769481 198.03899662 -241.3828125 195.9296875 C-242.78490967 194.54499268 -242.78490967 194.54499268 -244.21533203 193.13232422 C-246.96626235 190.28038673 -249.52285793 187.56511667 -251.875 184.375 C-251.545 183.385 -251.215 182.395 -250.875 181.375 C-248.00340339 180.28615809 -245.09915976 180.19251402 -242.05078125 180.05859375 C-241.11177979 180.01661865 -240.17277832 179.97464355 -239.20532227 179.93139648 C-238.20944092 179.89216064 -237.21355957 179.8529248 -236.1875 179.8125 C-235.16906006 179.7700415 -234.15062012 179.72758301 -233.10131836 179.68383789 C-224.35560794 179.34338061 -215.62569445 179.26928691 -206.875 179.375 C-206.72804688 178.31925781 -206.58109375 177.26351562 -206.4296875 176.17578125 C-198.76811152 124.31463282 -170.31764234 76.51857992 -128.875 44.375 C-128.34342285 43.95637695 -127.8118457 43.53775391 -127.26416016 43.10644531 C-100.35245742 22.03016839 -68.55673438 8.02294694 -34.875 2.375 C-33.8132959 2.19694824 -32.7515918 2.01889648 -31.65771484 1.83544922 C-21.08887246 0.23964101 -10.67156263 -0.02214272 0 0 Z " fill="#39B6FE" transform="translate(629.875,19.625)"/>
<path d="M0 0 C1.42291351 0.00303635 1.42291351 0.00303635 2.87457275 0.00613403 C3.86797668 0.00438171 4.86138062 0.00262939 5.8848877 0.00082397 C9.18615437 -0.00359654 12.48736798 -0.00065585 15.78863525 0.00271606 C18.07167572 0.00204308 20.35471612 0.00107311 22.63775635 -0.00018311 C27.42959269 -0.00166035 32.22141044 0.00049533 37.01324463 0.00515747 C43.1708016 0.01085477 49.32831499 0.0075759 55.48587036 0.00158501 C60.20229422 -0.00201989 64.91870767 -0.00088235 69.63513184 0.0017128 C71.90625005 0.00238227 74.1773692 0.00155296 76.44848633 -0.00076675 C79.61658247 -0.00329211 82.78460698 0.00054567 85.95269775 0.00613403 C86.90130676 0.0041098 87.84991577 0.00208557 88.82727051 0 C95.29937302 0.02126633 95.29937302 0.02126633 96.41363525 1.13552856 C96.51239521 2.51658154 96.54209655 3.90264535 96.54392052 5.28722382 C96.54754486 6.18789723 96.55116921 7.08857064 96.55490339 8.01653719 C96.55383514 9.01756582 96.55276688 10.01859445 96.55166626 11.04995728 C96.55448754 12.10462425 96.55730882 13.15929122 96.56021559 14.2459178 C96.56860469 17.81004011 96.56990356 21.37413153 96.5713501 24.93826294 C96.57601549 27.48222441 96.5811586 30.02618504 96.58674622 32.57014465 C96.59805388 38.06602439 96.60652671 43.56189758 96.61286545 49.05778503 C96.62318859 57.75783307 96.64375532 66.45784284 96.66598511 75.15786743 C96.67346605 78.13523089 96.68087975 81.11259451 96.68827248 84.08995819 C96.69012304 84.83422012 96.69197361 85.57848205 96.69388025 86.34529737 C96.71482637 94.82631469 96.7336411 103.3073363 96.75152588 111.7883606 C96.75316406 112.56388627 96.75480224 113.33941195 96.75649007 114.1384384 C96.78269956 126.66871207 96.80138217 139.19898866 96.81811778 151.72927803 C96.83559279 164.6059174 96.86450215 177.48249957 96.90300715 190.35909319 C96.92630807 198.29215248 96.94039276 206.22511841 96.94233479 214.15821218 C96.94471104 220.25893983 96.9626886 226.35953392 96.98620415 232.46021461 C96.99335745 234.94930398 96.99551757 237.43841392 96.99210167 239.92751122 C96.96356983 264.68824854 98.70389705 290.06913327 116.3862915 309.26052856 C130.40613891 322.22686143 148.59142698 325.53598894 166.97613525 325.51052856 C167.63804871 325.50998474 168.29996216 325.50944092 168.98193359 325.50888062 C187.74630867 325.43804599 206.56288581 322.01132457 220.41363525 308.13552856 C229.4211691 297.10166936 234.52790889 285.05720844 237.41363525 271.13552856 C237.6743343 269.89642589 237.6743343 269.89642589 237.94029999 268.63229084 C238.58403963 263.87666697 238.56371832 259.19211122 238.56512451 254.39826965 C238.56935692 253.31579085 238.57358933 252.23331204 238.57795 251.11803085 C238.59096702 247.49064261 238.59699858 243.86327635 238.60308838 240.23587036 C238.61103123 237.63565436 238.61941922 235.03543968 238.6282196 232.43522644 C238.64654297 226.83681963 238.6613986 221.23841234 238.67399597 215.63998985 C238.69230408 207.5445574 238.71696724 199.44915367 238.74336988 191.35374401 C238.78613322 178.21745683 238.82525826 165.08116176 238.86138916 151.94485474 C238.86355196 151.15898776 238.86571477 150.37312078 238.86794311 149.56343964 C238.88547173 143.18411976 238.90282244 136.80479938 238.92014599 130.42547894 C238.93531268 124.84176805 238.95054387 119.25805734 238.96588135 113.67434692 C238.96804022 112.88792184 238.97019909 112.10149675 238.97242337 111.2912406 C239.00848785 98.19758053 239.04843284 85.10393511 239.09118414 72.01029521 C239.1173769 63.93024525 239.14002689 55.85019982 239.15816772 47.77012769 C239.17229059 41.58968919 239.19141414 35.40927578 239.21241951 29.22885704 C239.2202066 26.6862739 239.22626246 24.14368481 239.23051262 21.60109329 C239.23651539 18.14665315 239.24854145 14.69228655 239.262146 11.23786926 C239.26244198 10.21766447 239.26273797 9.19745968 239.26304293 8.1463396 C239.27032954 6.76947866 239.27032954 6.76947866 239.27776337 5.36480236 C239.27987934 4.56646518 239.28199531 3.768128 239.2841754 2.94559878 C239.41363525 1.13552856 239.41363525 1.13552856 240.41363525 0.13552856 C243.57439869 0.03483078 246.71335553 -0.00061167 249.87457275 0.00613403 C250.86797668 0.00438171 251.86138062 0.00262939 252.8848877 0.00082397 C256.18615437 -0.00359654 259.48736798 -0.00065585 262.78863525 0.00271606 C265.07167572 0.00204308 267.35471612 0.00107311 269.63775635 -0.00018311 C274.42959269 -0.00166035 279.22141044 0.00049533 284.01324463 0.00515747 C290.1708016 0.01085477 296.32831499 0.0075759 302.48587036 0.00158501 C307.20229422 -0.00201989 311.91870767 -0.00088235 316.63513184 0.0017128 C318.90625005 0.00238227 321.1773692 0.00155296 323.44848633 -0.00076675 C326.61658247 -0.00329211 329.78460698 0.00054567 332.95269775 0.00613403 C333.90130676 0.0041098 334.84991577 0.00208557 335.82727051 0 C342.29937302 0.02126633 342.29937302 0.02126633 343.41363525 1.13552856 C343.51285921 2.5422607 343.54286086 3.95394271 343.54506302 5.36416817 C343.54890416 6.28204176 343.55274531 7.19991535 343.55670285 8.1456033 C343.55583637 9.1658849 343.55496989 10.1861665 343.55407715 11.23736572 C343.55853383 12.84976806 343.55853383 12.84976806 343.56308055 14.49474418 C343.57181115 18.12778027 343.57327955 21.76078357 343.57476807 25.39382935 C343.57939368 27.98716808 343.58441799 30.58050613 343.58981323 33.17384338 C343.60342573 40.24741521 343.60942826 47.3209814 343.61382389 54.39456415 C343.61658631 58.8188492 343.62082415 63.24313205 343.62532806 67.66741562 C343.63753382 79.93274613 343.64782449 92.19807488 343.65120316 104.46341133 C343.65142272 105.24944248 343.65164229 106.03547364 343.65186851 106.84532391 C343.65208678 107.63321136 343.65230506 108.42109881 343.65252995 109.23286164 C343.65297341 110.82932353 343.65341998 112.42578542 343.65386963 114.02224731 C343.65409106 114.81414282 343.65431249 115.60603832 343.65454063 116.42193066 C343.65847286 129.20037826 343.67587252 141.97876827 343.69922915 154.7571937 C343.72305263 167.89825289 343.73541029 181.03928338 343.73657107 194.18036449 C343.73748269 201.54927183 343.74310234 208.91810454 343.76139069 216.28699112 C343.77694199 222.57530285 343.78182579 228.86351699 343.77365258 235.15184434 C343.76979582 238.35065478 343.77212174 241.54923249 343.78470993 244.74802589 C343.85689452 264.25599886 342.99868581 283.84050149 337.78863525 302.76052856 C337.53702637 303.69380981 337.28541748 304.62709106 337.02618408 305.58865356 C325.88602146 344.98573748 298.93279023 379.24666049 263.269104 399.34402466 C258.73071364 401.78522569 254.09576467 403.98651638 249.41363525 406.13552856 C248.30117432 406.66662231 247.18871338 407.19771606 246.0425415 407.74490356 C200.51133044 428.55304243 142.20606552 428.74554802 95.53863525 411.82302856 C58.84776367 397.88795578 29.88759489 372.75890986 11.41363525 338.13552856 C10.88125244 337.175177 10.34886963 336.21482544 9.800354 335.22537231 C-6.01466658 305.5160184 -8.07459537 270.91017883 -7.94281006 237.96536255 C-7.94360348 235.36219718 -7.94570853 232.75903193 -7.94900513 230.15586853 C-7.95456131 223.89719882 -7.94447918 217.63865448 -7.92871717 211.38000607 C-7.91098619 204.07963677 -7.9097541 196.77929015 -7.90910158 189.47890271 C-7.90742432 176.46459694 -7.89173019 163.45034762 -7.86761475 150.43606567 C-7.84424693 137.81594371 -7.83017199 125.19585753 -7.82659912 112.57571411 C-7.82637635 111.79454349 -7.82615359 111.01337287 -7.82592407 110.20853042 C-7.82548146 108.63474291 -7.82503943 107.06095541 -7.824598 105.4871679 C-7.82437843 104.71079427 -7.82415887 103.93442064 -7.82393265 103.13452053 C-7.82371666 102.36005879 -7.82350068 101.58559704 -7.82327814 100.78766676 C-7.81958474 88.72725173 -7.80823581 76.66684243 -7.79580225 64.60643367 C-7.7913668 60.24054017 -7.78792881 55.87464721 -7.78518012 51.50875234 C-7.7803475 43.96014787 -7.77026782 36.41158011 -7.75435257 28.86298943 C-7.74981466 26.35263824 -7.7469874 23.84228333 -7.74594498 21.33192825 C-7.74421054 17.92235292 -7.73635834 14.51284779 -7.72680664 11.10328674 C-7.72767312 10.09672435 -7.72853961 9.09016195 -7.72943234 8.05309767 C-7.7255912 7.14752436 -7.72175005 6.24195104 -7.71779251 5.30893612 C-7.71654601 4.52144039 -7.71529952 3.73394466 -7.71401525 2.92258543 C-7.40527736 -1.39962368 -3.44681738 0.01132571 0 0 Z " fill="#3AB6FF" transform="translate(21.58636474609375,37.864471435546875)"/>
<path d="M0 0 C0.71884369 -0.00350464 1.43768738 -0.00700928 2.17831421 -0.01062012 C4.56037991 -0.01944059 6.9421499 -0.0135873 9.32421875 -0.00683594 C10.9756679 -0.0081825 12.62711666 -0.01012296 14.27856445 -0.01263428 C17.74206308 -0.01558596 21.20545865 -0.01128651 24.66894531 -0.00195312 C29.11467186 0.00944148 33.56015695 0.00288224 38.00587463 -0.00909805 C41.41672596 -0.01631548 44.82751977 -0.01402928 48.2383728 -0.00884247 C49.87787911 -0.00750564 51.5173906 -0.00915483 53.15689087 -0.01380157 C55.44588101 -0.01886494 57.73447683 -0.01115956 60.0234375 0 C61.97963013 0.00238678 61.97963013 0.00238678 63.9753418 0.00482178 C67.01171875 0.25878906 67.01171875 0.25878906 69.01171875 2.25878906 C69.25222778 4.39749146 69.25222778 4.39749146 69.23876953 7.07568359 C69.23861847 8.07657013 69.23846741 9.07745667 69.23831177 10.1086731 C69.2279892 11.19203949 69.21766663 12.27540588 69.20703125 13.39160156 C69.20278641 15.05206009 69.20278641 15.05206009 69.19845581 16.74606323 C69.18723394 20.29208044 69.16212566 23.83784781 69.13671875 27.38378906 C69.12669155 29.78352501 69.11756525 32.1832649 69.109375 34.58300781 C69.08728807 40.47502057 69.05379082 46.36688697 69.01171875 52.25878906 C70.67726807 52.24307861 70.67726807 52.24307861 72.37646484 52.22705078 C76.48759754 52.19090957 80.59871614 52.1679101 84.70996094 52.14892578 C86.49090942 52.13885475 88.27184132 52.12519721 90.05273438 52.10791016 C92.60941658 52.08370993 95.1658806 52.07231722 97.72265625 52.06347656 C98.92116714 52.04799271 98.92116714 52.04799271 100.14389038 52.03219604 C102.10129095 52.0317968 104.05814952 52.13637838 106.01171875 52.25878906 C108.01171875 54.25878906 108.01171875 54.25878906 108.25895691 56.84632874 C108.25681938 58.4872776 108.25681938 58.4872776 108.25463867 60.16137695 C108.2577153 61.39928482 108.26079193 62.63719269 108.26396179 63.91261292 C108.25706458 65.26889226 108.24979765 66.62516978 108.2421875 67.98144531 C108.24099578 69.36624611 108.24054252 70.75104772 108.24079895 72.135849 C108.23923393 75.03861548 108.23094214 77.94125867 108.2175293 80.84399414 C108.20052354 84.57232763 108.19671539 88.30052574 108.19747448 92.02889347 C108.19720312 94.88811037 108.19172762 97.74729744 108.18447304 100.60650444 C108.18128218 101.98168143 108.17931799 103.35686182 108.17857933 104.73204231 C108.1764211 106.64990574 108.16689169 108.56775666 108.15698242 110.4855957 C108.15317062 111.57876602 108.14935883 112.67193634 108.14543152 113.79823303 C108.01171875 116.25878906 108.01171875 116.25878906 107.01171875 117.25878906 C104.20008495 117.34740898 101.4131362 117.37401261 98.6015625 117.35644531 C97.75952774 117.35503036 96.91749298 117.35361542 96.04994202 117.35215759 C93.3496654 117.3465417 90.64947047 117.33398655 87.94921875 117.32128906 C86.12304807 117.31627611 84.29687609 117.31171285 82.47070312 117.30761719 C77.98434333 117.2965671 73.49804491 117.27929185 69.01171875 117.25878906 C69.09618024 127.19484724 69.19108626 137.13074589 69.29924583 147.066576 C69.3491448 151.68042125 69.39547537 156.29424432 69.43359375 160.90820312 C69.47052744 165.36275585 69.51690926 169.81712003 69.56978226 174.27151108 C69.58828329 175.96908122 69.60340702 177.66669172 69.61506271 179.36432266 C69.63199883 181.74616968 69.66105102 184.12758897 69.69287109 186.50927734 C69.69503128 187.20771255 69.69719147 187.90614777 69.69941711 188.62574768 C69.77140092 192.85662262 70.47693742 196.31930193 72.01171875 200.25878906 C79.71307391 202.12021281 87.17064339 202.63212001 95.07421875 202.82128906 C97.31521966 202.8808969 99.55611991 202.94446934 101.796875 203.01269531 C103.26459351 203.04858765 103.26459351 203.04858765 104.76196289 203.08520508 C107.01171875 203.25878906 107.01171875 203.25878906 108.01171875 204.25878906 C108.11102408 206.247664 108.13971337 208.24009323 108.14111328 210.23144531 C108.14426544 211.50947021 108.1474176 212.78749512 108.15066528 214.10424805 C108.1488755 215.50992873 108.14682455 216.91560911 108.14453125 218.32128906 C108.14520433 219.75236019 108.14617439 221.18343121 108.14743042 222.61450195 C108.14890719 225.61736131 108.14675351 228.62019097 108.14208984 231.62304688 C108.13639256 235.48031477 108.13967167 239.3375131 108.14566231 243.19477844 C108.14926849 246.15092497 108.14812907 249.10705489 108.14553452 252.0632019 C108.1448654 253.48582975 108.14569312 254.90845909 108.14801407 256.33108521 C108.15054149 258.3161008 108.14600917 260.30112165 108.14111328 262.28613281 C108.13991989 263.98370728 108.13991989 263.98370728 108.13870239 265.71557617 C108.01171875 268.25878906 108.01171875 268.25878906 107.01171875 269.25878906 C104.86785218 269.41737749 102.71905037 269.51008204 100.5703125 269.57519531 C99.26513672 269.61708984 97.95996094 269.65898437 96.61523438 269.70214844 C95.22656545 269.74196514 93.83789353 269.78167731 92.44921875 269.82128906 C91.05662692 269.86446895 89.66404847 269.90808306 88.27148438 269.95214844 C84.85167074 270.05864782 81.43178112 270.16065829 78.01171875 270.25878906 C87.43272754 279.01662784 87.43272754 279.01662784 97.0546875 287.55175781 C99.39731025 289.59512337 101.70445297 291.67559765 104.01171875 293.75878906 C106.99234596 296.44862337 109.98417108 299.1218927 113.01171875 301.75878906 C116.90684686 305.15131999 120.73954638 308.61073107 124.57421875 312.07128906 C127.33911703 314.55260803 130.13502594 316.99590627 132.9375 319.43457031 C136.19723824 322.30142108 139.40582659 325.2246739 142.6171875 328.14550781 C145.02160484 330.26751398 147.49182972 332.27599894 150.01171875 334.25878906 C149.43609065 337.63962949 148.43432254 339.17122343 145.9140625 341.46582031 C144.96503052 342.34040894 144.96503052 342.34040894 143.99682617 343.23266602 C143.32111572 343.83941162 142.64540527 344.44615723 141.94921875 345.07128906 C141.26255127 345.6993042 140.57588379 346.32731934 139.8684082 346.97436523 C135.92207388 350.57269994 131.94533218 354.13700049 127.8984375 357.62207031 C125.57513088 359.63752678 123.2942341 361.69727369 121.01171875 363.75878906 C117.3949553 367.02269754 113.74782267 370.24669855 110.07421875 373.44628906 C107.70207446 375.53090071 105.3561581 377.6430755 103.01171875 379.75878906 C99.39829023 383.01968797 95.75690779 386.24323016 92.08203125 389.43457031 C89.65427159 391.57374722 87.27401794 393.76208846 84.88671875 395.94628906 C81.41602145 399.08491347 78.01175012 401.83771744 74.01171875 404.25878906 C73.68171875 403.92878906 73.35171875 403.59878906 73.01171875 403.25878906 C73.01171875 393.02878906 73.01171875 382.79878906 73.01171875 372.25878906 C-36.87828125 372.25878906 -146.76828125 372.25878906 -259.98828125 372.25878906 C-257.329234 369.59974181 -254.38069133 369.0309601 -250.86328125 368.00878906 C-217.12753941 357.715053 -187.86391663 340.36546749 -162.98828125 315.25878906 C-159.65494792 311.92545573 -156.32161458 308.5921224 -152.98828125 305.25878906 C-152.19723181 304.20934805 -152.19723181 304.20934805 -151.39020157 303.13870621 C-147.87043424 300.38388087 -144.43868552 300.71866295 -140.1552124 300.777771 C-139.25341318 300.7743533 -138.35161397 300.7709356 -137.4224875 300.76741433 C-134.39429286 300.76081456 -131.36698045 300.78284632 -128.33886719 300.8046875 C-126.17081727 300.80581552 -124.00276582 300.805183 -121.8347168 300.80291748 C-115.94244632 300.80176765 -110.05050014 300.82532075 -104.15830517 300.85321331 C-98.00303469 300.87818203 -91.84775716 300.88056539 -85.69244385 300.88531494 C-74.03356875 300.89775802 -62.37484331 300.93059777 -50.71603417 300.9707129 C-37.44414505 301.01538908 -24.17225707 301.03740721 -10.90031004 301.05749464 C16.4037854 301.09932915 43.70773739 301.17051088 71.01171875 301.25878906 C71.01171875 290.69878906 71.01171875 280.13878906 71.01171875 269.25878906 C68.04171875 269.25878906 65.07171875 269.25878906 62.01171875 269.25878906 C42.33079746 267.73437088 25.10250915 261.27694652 11.01171875 247.25878906 C10.38523437 246.66710937 9.75875 246.07542969 9.11328125 245.46582031 C-8.1160792 227.80767487 -9.15759651 201.89035158 -9.0859375 178.78222656 C-9.08406928 177.00289958 -9.08264728 175.22357207 -9.08164978 173.44424438 C-9.07785644 168.79187567 -9.06805381 164.13953885 -9.0569458 159.48718262 C-9.04666277 154.72746207 -9.04213748 149.9677363 -9.03710938 145.20800781 C-9.02642828 135.89158765 -9.00939071 126.57519102 -8.98828125 117.25878906 C-9.74036865 117.26402588 -10.49245605 117.2692627 -11.26733398 117.2746582 C-14.65347467 117.29536133 -18.03960209 117.30842783 -21.42578125 117.32128906 C-22.60978516 117.32966797 -23.79378906 117.33804688 -25.01367188 117.34667969 C-26.13837891 117.34990234 -27.26308594 117.353125 -28.421875 117.35644531 C-29.9850647 117.36430054 -29.9850647 117.36430054 -31.57983398 117.37231445 C-33.98828125 117.25878906 -33.98828125 117.25878906 -34.98828125 116.25878906 C-35.08753898 114.30054208 -35.11627539 112.33869009 -35.11767578 110.37792969 C-35.12082794 109.11992554 -35.1239801 107.86192139 -35.12722778 106.5657959 C-35.125438 105.18220993 -35.12338705 103.79862428 -35.12109375 102.41503906 C-35.12176684 101.00638818 -35.1227369 99.5977374 -35.12399292 98.18908691 C-35.12546967 95.23330584 -35.12331608 92.27755492 -35.11865234 89.32177734 C-35.11295506 85.52504322 -35.11623418 81.72837978 -35.12222481 77.93164825 C-35.12583104 75.02182478 -35.12469155 72.11201818 -35.12209702 69.20219421 C-35.12142792 67.80189506 -35.12225557 66.40159439 -35.12457657 65.001297 C-35.12710408 63.04741442 -35.12257158 61.09352651 -35.11767578 59.13964844 C-35.11688019 58.02569702 -35.11608459 56.91174561 -35.11526489 55.76403809 C-34.98828125 53.25878906 -34.98828125 53.25878906 -33.98828125 52.25878906 C-32.13458514 52.17141261 -30.27760584 52.15180753 -28.421875 52.16113281 C-27.29716797 52.16435547 -26.17246094 52.16757813 -25.01367188 52.17089844 C-23.82966797 52.17927734 -22.64566406 52.18765625 -21.42578125 52.19628906 C-20.23791016 52.20080078 -19.05003906 52.2053125 -17.82617188 52.20996094 C-14.88015899 52.22179231 -11.93424444 52.2382762 -8.98828125 52.25878906 C-8.99272247 51.63682648 -8.9971637 51.01486389 -9.0017395 50.37405396 C-9.04588365 43.91817516 -9.07611043 37.46233902 -9.09814453 31.00634766 C-9.10822079 28.59487162 -9.12188206 26.18340785 -9.13916016 23.77197266 C-9.16333715 20.31181821 -9.17474794 16.85182486 -9.18359375 13.39160156 C-9.19391632 12.30823517 -9.20423889 11.22486877 -9.21487427 10.1086731 C-9.21502533 9.10778656 -9.21517639 8.10690002 -9.21533203 7.07568359 C-9.21977325 6.19188019 -9.22421448 5.30807678 -9.22879028 4.39749146 C-8.62862322 -0.93943377 -4.32133025 0.00527252 0 0 Z " fill="#020202" transform="translate(940.98828125,58.7412109375)"/>
<path d="M0 0 C4.79013036 4.20212035 8.88759333 8.86411599 12.984375 13.7265625 C13.02195923 12.64387085 13.02195923 12.64387085 13.06030273 11.53930664 C13.17588802 8.2890275 13.29878274 5.03906562 13.421875 1.7890625 C13.46119141 0.65275391 13.50050781 -0.48355469 13.54101562 -1.65429688 C13.58291016 -2.73388672 13.62480469 -3.81347656 13.66796875 -4.92578125 C13.72295532 -6.42612915 13.72295532 -6.42612915 13.77905273 -7.95678711 C13.984375 -10.2734375 13.984375 -10.2734375 14.984375 -11.2734375 C17.32151825 -11.37367305 19.62911825 -11.40962953 21.96679688 -11.40283203 C22.6968544 -11.40458435 23.42691193 -11.40633667 24.17909241 -11.40814209 C26.60379378 -11.41256049 29.02842282 -11.40962267 31.453125 -11.40625 C33.13081883 -11.40692304 34.80851256 -11.40789307 36.48620605 -11.40914917 C40.00692674 -11.41062613 43.5276221 -11.40847166 47.04833984 -11.40380859 C51.57147996 -11.3981113 56.09456074 -11.40139032 60.61769867 -11.40738106 C64.08339895 -11.41098673 67.54908507 -11.40984806 71.01478577 -11.40725327 C72.68302925 -11.40658401 74.35127399 -11.40741236 76.01951599 -11.40973282 C78.34702994 -11.41225945 80.67444648 -11.40841863 83.00195312 -11.40283203 C83.69809219 -11.40485626 84.39423126 -11.40688049 85.11146545 -11.40896606 C89.87011226 -11.38770024 89.87011226 -11.38770024 90.984375 -10.2734375 C91.08447353 -7.51934359 91.1187703 -4.79025521 91.11135864 -2.03564453 C91.11291863 -1.16161547 91.11447862 -0.2875864 91.11608589 0.61292839 C91.12009976 3.56488568 91.11690475 6.51679226 91.11376953 9.46875 C91.1151234 11.57562287 91.11690325 13.6824955 91.11907959 15.78936768 C91.12365563 21.52886785 91.12186366 27.26835014 91.1187005 33.00785065 C91.11617778 38.99986318 91.11851419 44.99187413 91.12008667 50.98388672 C91.12190862 61.04850542 91.11950138 71.11311679 91.11474609 81.17773438 C91.10930343 92.8321612 91.11106606 104.48657053 91.1165725 116.14099693 C91.1211029 126.12736346 91.12175454 136.11372471 91.11913383 146.10009193 C91.11757065 152.07322095 91.1173784 158.04634172 91.12067032 164.01947021 C91.12354797 169.63360162 91.1215753 175.24771035 91.11577606 180.86183929 C91.11444789 182.92871818 91.11484353 184.99559896 91.11703873 187.06247711 C91.11974801 189.87126746 91.11637184 192.67998396 91.11135864 195.48876953 C91.11358936 196.31783751 91.11582009 197.14690548 91.11811841 198.00109673 C91.09852483 203.61241267 91.09852483 203.61241267 89.984375 204.7265625 C87.64723175 204.82679805 85.33963175 204.86275453 83.00195312 204.85595703 C82.2718956 204.85770935 81.54183807 204.85946167 80.78965759 204.86126709 C78.36495622 204.86568549 75.94032718 204.86274767 73.515625 204.859375 C71.83793117 204.86004804 70.16023744 204.86101807 68.48254395 204.86227417 C64.96182326 204.86375113 61.4411279 204.86159666 57.92041016 204.85693359 C53.39727004 204.8512363 48.87418926 204.85451532 44.35105133 204.86050606 C40.88535105 204.86411173 37.41966493 204.86297306 33.95396423 204.86037827 C32.28572075 204.85970901 30.61747601 204.86053736 28.94923401 204.86285782 C26.62172006 204.86538445 24.29430352 204.86154363 21.96679688 204.85595703 C21.27065781 204.85798126 20.57451874 204.86000549 19.85728455 204.86209106 C15.09863774 204.84082524 15.09863774 204.84082524 13.984375 203.7265625 C13.82673095 201.94786524 13.73336823 200.16337774 13.66796875 198.37890625 C13.60512695 196.75952148 13.60512695 196.75952148 13.54101562 195.10742188 C13.50169922 193.97111328 13.46238281 192.83480469 13.421875 191.6640625 C13.35709961 189.95379883 13.35709961 189.95379883 13.29101562 188.20898438 C13.18454661 185.38164055 13.08253293 182.55420512 12.984375 179.7265625 C12.49396729 180.32500977 12.00355957 180.92345703 11.49829102 181.54003906 C-1.34786827 197.00877065 -18.89177593 205.6455554 -38.828125 207.59765625 C-63.23482875 209.03590844 -86.0276849 203.08741064 -104.78344727 186.75146484 C-125.76741237 167.73422825 -136.61369493 141.49580564 -140.015625 113.7265625 C-140.12726139 111.13693665 -140.20247354 108.57383598 -140.21875 105.984375 C-140.22445007 105.25773651 -140.23015015 104.53109802 -140.23602295 103.78244019 C-140.24542019 102.2478783 -140.25198579 100.71329671 -140.25585938 99.17871094 C-140.2654545 96.89219191 -140.29648065 94.60661706 -140.328125 92.3203125 C-140.54723922 61.88109702 -130.28164317 31.99430948 -108.828125 9.9765625 C-98.83210983 0.1212537 -87.21303211 -6.52419757 -74.015625 -11.2734375 C-73.07332031 -11.61375 -72.13101562 -11.9540625 -71.16015625 -12.3046875 C-47.78026558 -19.1198783 -19.47666247 -14.68318337 0 0 Z M-52.69921875 65.65625 C-61.60703368 77.78509527 -62.37464094 92.226504 -61.015625 106.7265625 C-59.18124561 117.07328671 -54.57751691 126.77583376 -46.171875 133.375 C-37.05492727 139.08960854 -27.65841791 141.0723449 -17.015625 139.7265625 C-6.38581014 137.10241021 1.67420251 131.69843326 7.984375 122.7265625 C14.64023792 109.16893039 15.93416492 94.33333279 11.984375 79.7265625 C7.03014339 67.60326633 0.90211559 60.96820924 -10.515625 54.8515625 C-25.05332055 49.98624154 -42.64748492 54.13523721 -52.69921875 65.65625 Z " fill="#020202" transform="translate(1190.015625,123.2734375)"/>
<path d="M0 0 C1.0442086 0.00303635 1.0442086 0.00303635 2.10951233 0.00613403 C2.83956985 0.00438171 3.56962738 0.00262939 4.32180786 0.00082397 C6.74650924 -0.00359443 9.17113828 -0.00065661 11.59584045 0.00271606 C13.27353428 0.00204302 14.95122802 0.00107299 16.62892151 -0.00018311 C20.14964219 -0.00166006 23.67033755 0.0004944 27.1910553 0.00515747 C31.71419541 0.01085476 36.23727619 0.00757574 40.76041412 0.00158501 C44.22611441 -0.00202067 47.69180052 -0.00088199 51.15750122 0.0017128 C52.8257447 0.00238205 54.49398945 0.00155371 56.16223145 -0.00076675 C58.48974539 -0.00329339 60.81716193 0.00054744 63.14466858 0.00613403 C63.84080765 0.0041098 64.53694672 0.00208557 65.25418091 0 C70.01282772 0.02126583 70.01282772 0.02126583 71.12709045 1.13552856 C71.23591872 3.04612744 71.27398539 4.96077311 71.28530884 6.87443542 C71.29509766 8.12110489 71.30488647 9.36777435 71.31497192 10.65222168 C71.32087688 12.04647789 71.32668728 13.4407345 71.33241272 14.83499146 C71.34198587 16.29325136 71.3519956 17.75150845 71.3624115 19.20976257 C71.38952776 23.18063319 71.4105008 27.15151578 71.43041348 31.12242818 C71.45223173 35.26780347 71.47964071 39.41314159 71.50646973 43.55848694 C71.55645306 51.41369488 71.60137089 59.26892339 71.64449209 67.12417167 C71.69381636 76.06479895 71.74875227 85.00538894 71.80417168 93.94598019 C71.91807829 112.34246173 72.02489833 130.73897841 72.12709045 149.13552856 C72.44315026 148.67536819 72.75921007 148.21520781 73.08484745 147.74110317 C74.5304413 145.63667607 75.97634632 143.53246296 77.42225647 141.42825317 C78.16803829 140.34243076 78.16803829 140.34243076 78.92888641 139.23467255 C82.27495897 134.36580527 85.64472858 129.51542405 89.06459045 124.69802856 C90.07632214 123.26835022 91.08804051 121.83866245 92.0997467 120.40896606 C92.60135315 119.70094849 93.10295959 118.99293091 93.61976624 118.26345825 C96.08346946 114.78538288 98.54312642 111.30445544 101.00209045 107.82302856 C101.48822815 107.13539429 101.97436584 106.44776001 102.47523499 105.73928833 C105.24691575 101.81462086 108.00423296 97.88042188 110.7481842 93.93630981 C111.36258362 93.05434937 111.97698303 92.17238892 112.61000061 91.26370239 C113.79017848 89.56839751 114.96838728 87.87171934 116.1441803 86.17337036 C125.44820109 72.81441793 125.44820109 72.81441793 129.12709045 69.13552856 C131.92617752 69.01031886 134.70179375 68.94944134 137.50233459 68.9302063 C138.38030197 68.9203067 139.25826935 68.9104071 140.1628418 68.90020752 C143.0792822 68.86849429 145.99573893 68.84379645 148.9122467 68.81912231 C150.92864416 68.79856126 152.94503722 68.77756502 154.96142578 68.75614929 C160.27969312 68.70084097 165.5979999 68.65147047 170.91633606 68.603302 C176.33883697 68.55315077 181.76128028 68.49743149 187.18373108 68.44216919 C197.83146838 68.33448054 208.47925561 68.23305951 219.12709045 68.13552856 C219.12709045 72.25658909 219.08184876 72.69439621 216.7403717 75.68240356 C216.22063782 76.35432739 215.70090393 77.02625122 215.16542053 77.71853638 C214.31113464 78.79119751 214.31113464 78.79119751 213.43959045 79.88552856 C212.56306824 81.00846313 212.56306824 81.00846313 211.6688385 82.15408325 C207.11852592 87.95791036 202.47025055 93.68344265 197.79872131 99.3899231 C193.62385665 104.49429069 189.58474512 109.68696971 185.5841217 114.92849731 C181.61915766 120.11983768 177.56121712 125.23882422 173.51820374 130.36941528 C171.21834808 133.28923905 168.92293101 136.2125475 166.62709045 139.13552856 C165.71044536 140.30221218 164.79377868 141.46887884 163.87709045 142.63552856 C163.42334045 143.21302856 162.96959045 143.79052856 162.50209045 144.38552856 C158.37709045 149.63552856 158.37709045 149.63552856 156.99964905 151.38772583 C156.08993912 152.54614158 155.18139559 153.70547434 154.27406311 154.86575317 C151.88507565 157.91748922 149.47354366 160.94727424 147.02552795 163.95193481 C146.26659241 164.89262817 146.26659241 164.89262817 145.49232483 165.85232544 C144.52446691 167.05104855 143.54956843 168.24413337 142.56654358 169.43045044 C138.96126931 173.79412416 138.96126931 173.79412416 138.12709045 179.13552856 C139.6953661 181.83770718 141.69731371 184.10470626 143.75209045 186.44802856 C144.95692216 187.87346791 146.16133733 189.29925942 147.3653717 190.72537231 C147.98879456 191.45353149 148.61221741 192.18169067 149.25453186 192.93191528 C152.2096663 196.40949592 155.07208359 199.96066519 157.93959045 203.51052856 C159.02923364 204.85183736 160.11907089 206.19298853 161.2091217 207.53396606 C164.15249515 211.16221638 167.07071943 214.81006093 169.9825592 218.46365356 C172.22572774 221.25842093 174.48760275 224.03727913 176.75184631 226.81497192 C181.40864679 232.52802339 186.03336519 238.25976125 190.56459045 244.07302856 C194.66655437 249.33307867 198.87395872 254.49709571 203.12709045 259.63552856 C204.88769182 261.77018509 206.64691797 263.9059595 208.40492249 266.04275513 C209.54762473 267.43136352 210.69181752 268.81874675 211.83753967 270.2048645 C213.42411343 272.13151831 214.99622819 274.0690396 216.56459045 276.01052856 C217.28292053 276.87581177 217.28292053 276.87581177 218.01576233 277.75857544 C219.3106842 279.37771606 219.3106842 279.37771606 221.12709045 282.13552856 C220.79709045 283.12552856 220.46709045 284.11552856 220.12709045 285.13552856 C208.45311051 285.48407714 196.78037981 285.75008734 185.10224438 285.91271114 C179.67839175 285.9907941 174.25811375 286.09654957 168.83631897 286.26712036 C163.59696099 286.43090763 158.36102412 286.5199443 153.11930275 286.55868721 C151.12663712 286.58626741 149.13414578 286.64013718 147.14295006 286.72147942 C132.02934329 287.31395688 132.02934329 287.31395688 127.26219368 283.73573875 C123.87371218 280.22736848 121.43678921 276.23925341 119.12753868 271.96530724 C117.85105345 269.63066823 116.35391925 267.4926336 114.80897522 265.3286438 C113.89192238 263.95283627 112.97840432 262.57466583 112.0684967 261.19412231 C111.55439743 260.42085098 111.04029816 259.64757965 110.51062012 258.85087585 C108.90025184 256.42713497 107.29472975 254.00023461 105.68959045 251.57302856 C104.65672526 250.0161637 103.6235222 248.45952292 102.58998108 246.90310669 C100.97697549 244.47370228 99.36436993 242.0440386 97.7532196 239.61340332 C92.27648588 231.35197561 86.77857858 223.10470298 81.2794342 214.85818481 C80.82398287 214.17518248 80.36853153 213.49218014 79.89927864 212.78848076 C77.30884458 208.90396633 74.71809755 205.0196608 72.12709045 201.13552856 C72.11678299 202.17313828 72.10647552 203.21074799 72.09585571 204.27980042 C71.99829441 214.0363533 71.89557718 223.79283993 71.7877512 233.54928493 C71.73247807 238.56572154 71.67905119 243.58216393 71.629776 248.59866333 C71.58219702 253.43567723 71.52985683 258.27261788 71.4741497 263.10954475 C71.45369675 264.95919037 71.43498864 266.80885609 71.41801643 268.65853691 C71.39403725 271.24005311 71.36397427 273.82142954 71.33241272 276.40286255 C71.32665726 277.17537857 71.32090179 277.94789459 71.31497192 278.74382019 C71.24114262 284.0214764 71.24114262 284.0214764 70.12709045 285.13552856 C67.7899472 285.23576411 65.4823472 285.27172059 63.14466858 285.2649231 C62.41461105 285.26667542 61.68455353 285.26842773 60.93237305 285.27023315 C58.50767167 285.27465156 56.08304263 285.27171373 53.65834045 285.26834106 C51.98064663 285.26901411 50.30295289 285.26998414 48.6252594 285.27124023 C45.10453872 285.27271719 41.58384336 285.27056273 38.06312561 285.26589966 C33.5399855 285.26020237 29.01690472 285.26348138 24.49376678 285.26947212 C21.0280665 285.2730778 17.56238039 285.27193912 14.09667969 285.26934433 C12.42843621 285.26867508 10.76019146 285.26950342 9.09194946 285.27182388 C6.76443552 285.27435052 4.43701898 285.27050969 2.10951233 285.2649231 C1.41337326 285.26694733 0.71723419 285.26897156 0 285.27105713 C-4.75864681 285.2497913 -4.75864681 285.2497913 -5.87290955 284.13552856 C-5.97064167 282.62478176 -5.99846448 281.10946285 -5.99875069 279.59555817 C-6.00135843 278.60838287 -6.00396618 277.62120757 -6.00665295 276.60411787 C-6.00442223 275.50657446 -6.00219151 274.40903106 -5.99989319 273.27822876 C-6.00145318 272.12243458 -6.00301317 270.96664041 -6.00462043 269.77582216 C-6.00793361 266.55335402 -6.00672132 263.33092314 -6.00363421 260.1084559 C-6.00138192 256.63875387 -6.00485887 253.16905708 -6.00761414 249.69935608 C-6.01207266 242.89654535 -6.011095 236.09374562 -6.00820149 229.29093444 C-6.00594778 223.76464934 -6.0056348 218.23836734 -6.00672531 212.71208191 C-6.00687854 211.92707889 -6.00703178 211.14207587 -6.00718965 210.33328488 C-6.00750936 208.73882115 -6.00783358 207.14435741 -6.00816225 205.54989368 C-6.01101728 190.58066208 -6.00772965 175.6114366 -6.00236188 160.64220601 C-5.99789382 147.78369458 -5.99866974 134.92519218 -6.00328064 122.06668091 C-6.00862599 107.15287677 -6.01074259 92.239078 -6.00766838 77.32527304 C-6.00734981 75.7365071 -6.00703544 74.14774116 -6.00672531 72.55897522 C-6.0064939 71.38626396 -6.0064939 71.38626396 -6.00625781 70.18986157 C-6.00539254 64.66695292 -6.00685575 59.14404765 -6.00920486 53.62113953 C-6.01200263 46.89524395 -6.0112651 40.16936006 -6.00592412 33.44346583 C-6.00328679 30.00847647 -6.00228258 26.57350662 -6.00557327 23.13851738 C-6.00828148 19.42326787 -6.0049077 15.70807426 -5.99989319 11.99282837 C-6.00212391 10.89528496 -6.00435463 9.79774156 -6.00665295 8.66693926 C-6.0040452 7.67976396 -6.00143746 6.69258866 -5.99875069 5.67549896 C-5.99858833 4.81673393 -5.99842598 3.95796889 -5.99825871 3.07318068 C-5.74583141 -0.82885001 -3.33955707 0.01492408 0 0 Z " fill="#000000" transform="translate(1505.8729095458984,42.864471435546875)"/>
<path d="M0 0 C16.44811633 14.45590204 27.27847462 32.14681733 30.46875 54.05078125 C30.530625 55.10265625 30.5925 56.15453125 30.65625 57.23828125 C28.81226426 59.08226699 25.81962451 58.40459339 23.34814453 58.43115234 C22.68957458 58.43932983 22.03100464 58.44750732 21.35247803 58.45593262 C19.16468223 58.48082392 16.97695144 58.49731136 14.7890625 58.51171875 C14.04350979 58.51704243 13.29795708 58.5223661 12.52981186 58.5278511 C8.58417538 58.55459813 4.63857073 58.57396853 0.69287109 58.58837891 C-3.38874656 58.60503691 -7.46955829 58.64981843 -11.5508709 58.70075035 C-14.68381712 58.73435911 -17.81657053 58.74594919 -20.94968033 58.75160599 C-22.45445037 58.7583356 -23.95920697 58.77360212 -25.46380234 58.7974968 C-27.56882682 58.82902096 -29.67165821 58.82920647 -31.77685547 58.82177734 C-32.97519012 58.8298642 -34.17352478 58.83795105 -35.40817261 58.84628296 C-38.34375 58.23828125 -38.34375 58.23828125 -40.19656372 55.83071899 C-40.57513519 54.97521454 -40.95370667 54.11971008 -41.34375 53.23828125 C-41.64796875 52.55765625 -41.9521875 51.87703125 -42.265625 51.17578125 C-42.67554688 50.21671875 -42.67554688 50.21671875 -43.09375 49.23828125 C-45.86070972 43.66227878 -49.8060835 41.10139177 -55.60546875 39.12890625 C-62.80087724 37.41463965 -72.01657555 36.38676102 -78.71875 40.11328125 C-81.3696038 42.25921051 -82.192948 42.9577003 -82.58203125 46.26171875 C-82.61876953 47.42574219 -82.61876953 47.42574219 -82.65625 48.61328125 C-82.69363281 49.38414062 -82.73101563 50.155 -82.76953125 50.94921875 C-82.16955213 54.17479457 -80.84291566 55.12636004 -78.34375 57.23828125 C-75.96388404 58.37221633 -73.71448601 59.32565268 -71.24609375 60.20703125 C-70.19699074 60.59018494 -70.19699074 60.59018494 -69.12669373 60.9810791 C-60.88590633 63.89301409 -52.42083241 65.81674354 -43.90625 67.73828125 C-17.84484047 73.6331561 8.43845804 81.28129571 24.03125 104.92578125 C31.6418873 118.87140926 33.26719637 136.38890285 29.26660156 151.72631836 C23.61511534 170.35587756 10.28521968 182.63610058 -6.25 191.859375 C-35.09654008 207.07972049 -71.69556252 206.31968657 -102.29443359 196.8984375 C-117.99926281 191.83936457 -130.8293795 183.88693012 -142.34375 172.23828125 C-143.08367187 171.50867188 -143.82359375 170.7790625 -144.5859375 170.02734375 C-154.72090507 159.41914812 -162.39722756 144.80779799 -162.65625 129.92578125 C-162.34375 126.23828125 -162.34375 126.23828125 -161.34375 125.23828125 C-159.11530529 125.1333689 -156.88349077 125.09970913 -154.65258789 125.09301758 C-153.95339737 125.08965897 -153.25420685 125.08630035 -152.53382874 125.08283997 C-150.21133674 125.07330332 -147.88891663 125.0713855 -145.56640625 125.0703125 C-143.95836863 125.06710178 -142.35033131 125.06373785 -140.74229431 125.06022644 C-137.36700768 125.05422836 -133.99174667 125.05238723 -130.61645508 125.05297852 C-126.283937 125.05308017 -121.95158267 125.03942742 -117.61910343 125.02220631 C-114.29661804 125.01110673 -110.97417249 125.00905868 -107.65167046 125.00958824 C-106.05402499 125.00840505 -104.4563786 125.00396443 -102.8587513 124.99625587 C-100.62715194 124.98649703 -98.39591134 124.98931753 -96.16430664 124.99536133 C-94.25688438 124.9932238 -94.25688438 124.9932238 -92.31092834 124.99104309 C-89.34375 125.23828125 -89.34375 125.23828125 -87.34375 127.23828125 C-86.78846389 128.67647228 -86.29437801 130.13894394 -85.84375 131.61328125 C-84.35390292 137.20582458 -84.35390292 137.20582458 -80.65625 141.30078125 C-79.893125 141.61015625 -79.13 141.91953125 -78.34375 142.23828125 C-77.209375 142.75390625 -76.075 143.26953125 -74.90625 143.80078125 C-66.16208395 147.32912895 -55.97013864 147.65605491 -47.125 144.2109375 C-44.31936932 142.67891549 -43.3683593 141.24380186 -42.34375 138.23828125 C-41.83784069 134.19100676 -41.7696869 132.10531448 -44.04296875 128.671875 C-52.6607166 119.55666802 -71.62569024 118.03741814 -83.34375 115.23828125 C-132.5289676 103.48922382 -132.5289676 103.48922382 -147.28125 81.92578125 C-155.7904684 67.37644619 -157.05644558 50.4883207 -153.34375 34.23828125 C-147.98882111 15.26077174 -135.32247352 1.80240703 -118.39453125 -7.6875 C-84.64261788 -25.5764242 -30.10644493 -25.45410152 0 0 Z " fill="#050505" transform="translate(1454.34375,127.76171875)"/>
<path d="M0 0 C4.02584555 3.45072476 8.01478908 6.88029958 11.9375 10.4375 C14.9384942 13.14880547 17.94980622 15.84417471 21 18.5 C24.89512811 21.89253093 28.72782763 25.35194201 32.5625 28.8125 C34.69417481 30.72554149 36.8401911 32.61887612 39 34.5 C42.89512811 37.89253093 46.72782763 41.35194201 50.5625 44.8125 C53.32679259 47.2932754 56.12109906 49.73697849 58.92578125 52.171875 C62.19953714 55.05721917 65.40060111 58.02284949 68.60546875 60.984375 C70.95101368 63.07873701 70.95101368 63.07873701 73.73828125 64.578125 C76 66 76 66 77 69 C72.87911351 73.23678642 68.64289702 77.2568045 64.16796875 81.1171875 C61.75157049 83.2157532 59.37470976 85.354397 57 87.5 C53.38323655 90.76390848 49.73610392 93.98790949 46.0625 97.1875 C43.69035571 99.27211164 41.34443935 101.38428644 39 103.5 C35.38323655 106.76390848 31.73610392 109.98790949 28.0625 113.1875 C25.69035571 115.27211164 23.34443935 117.38428644 21 119.5 C19.33371403 121.00042289 17.66706322 122.50044074 16 124 C15.28457031 124.64453125 14.56914063 125.2890625 13.83203125 125.953125 C9.72711565 129.6054677 5.52866176 132.88654504 1 136 C0.67 135.67 0.34 135.34 0 135 C0 124.77 0 114.54 0 104 C-109.89 104 -219.78 104 -333 104 C-330.34095275 101.34095275 -327.39241008 100.77217104 -323.875 99.75 C-290.13925816 89.45626394 -260.87563538 72.10667843 -236 47 C-232.66666667 43.66666667 -229.33333333 40.33333333 -226 37 C-225.47341671 36.30037266 -224.94683342 35.60074532 -224.40429306 34.87991714 C-220.87448725 32.11996139 -217.42325416 32.45999648 -213.12896729 32.51898193 C-211.77014313 32.51385538 -211.77014313 32.51385538 -210.38386798 32.50862527 C-207.34185529 32.50202532 -204.30072075 32.52405758 -201.25878906 32.54589844 C-199.08088705 32.54702646 -196.90298352 32.54639395 -194.7250824 32.54412842 C-188.80595388 32.54297857 -182.88714818 32.56653193 -176.96809483 32.59442425 C-170.78479705 32.6193927 -164.60149226 32.62177631 -158.41815186 32.62652588 C-146.70615314 32.63896904 -134.99430339 32.67180889 -123.28237033 32.71192384 C-109.95002377 32.75692022 -96.6176766 32.77861808 -83.28527117 32.79870558 C-55.85676199 32.84054026 -28.42839561 32.91172213 -1 33 C-0.67 22.11 -0.34 11.22 0 0 Z " fill="#000000" transform="translate(1014,327)"/>
<path d="M0 0 C0.69771011 0.00359528 1.39542023 0.00719055 2.11427307 0.01089478 C3.2117688 0.01067574 3.2117688 0.01067574 4.33143616 0.01045227 C6.76094989 0.0111515 9.19038789 0.01894432 11.61988831 0.02676392 C13.29997719 0.02862806 14.98006662 0.03005198 16.66015625 0.03105164 C21.09071849 0.03487709 25.52124815 0.04470761 29.95179749 0.05575562 C34.46941182 0.06596914 38.98703139 0.07054913 43.50465393 0.07559204 C52.37511098 0.08632986 61.24554381 0.10340661 70.11598206 0.12442017 C70.11598206 0.78442017 70.11598206 1.44442017 70.11598206 2.12442017 C45.69598206 2.12442017 21.27598206 2.12442017 -3.88401794 2.12442017 C-3.88401794 94.85442017 -3.88401794 187.58442017 -3.88401794 283.12442017 C20.53598206 283.12442017 44.95598206 283.12442017 70.11598206 283.12442017 C70.11598206 283.78442017 70.11598206 284.44442017 70.11598206 285.12442017 C60.35447217 285.14754462 50.59296876 285.16533578 40.83143711 285.17623234 C36.29924111 285.18146094 31.76706379 285.18855817 27.23487854 285.19985962 C22.86475375 285.21068931 18.49464698 285.21669717 14.12450981 285.21929741 C12.45347243 285.22115151 10.78243608 285.22477184 9.11140633 285.23015022 C6.77900654 285.23736175 4.44668213 285.23841106 2.11427307 285.23794556 C1.41656296 285.24154083 0.71885284 285.24513611 0 285.24884033 C-4.76996578 285.23847233 -4.76996578 285.23847233 -5.88401794 284.12442017 C-5.98175006 282.61367336 -6.00957288 281.09835445 -6.00985909 279.58444977 C-6.01246683 278.59727447 -6.01507458 277.61009917 -6.01776135 276.59300947 C-6.01553063 275.49546607 -6.01329991 274.39792266 -6.01100159 273.26712036 C-6.01256158 272.11132618 -6.01412157 270.95553201 -6.01572883 269.76471376 C-6.01904201 266.54224563 -6.01782971 263.31981475 -6.01474261 260.0973475 C-6.01249032 256.62764547 -6.01596727 253.15794868 -6.01872253 249.68824768 C-6.02318106 242.88543695 -6.0222034 236.08263722 -6.01930989 229.27982605 C-6.01705618 223.75354094 -6.0167432 218.22725894 -6.01783371 212.70097351 C-6.01798694 211.91597049 -6.01814018 211.13096747 -6.01829805 210.32217649 C-6.01861776 208.72771275 -6.01894197 207.13324901 -6.01927064 205.53878528 C-6.02212568 190.56955369 -6.01883805 175.60032821 -6.01347028 160.63109761 C-6.00900222 147.77258618 -6.00977814 134.91408378 -6.01438904 122.05557251 C-6.01973439 107.14176837 -6.02185098 92.2279696 -6.01877677 77.31416464 C-6.01845821 75.7253987 -6.01814384 74.13663276 -6.01783371 72.54786682 C-6.0176023 71.37515556 -6.0176023 71.37515556 -6.01736621 70.17875317 C-6.01650093 64.65584452 -6.01796415 59.13293925 -6.02031326 53.61003113 C-6.02311103 46.88413555 -6.0223735 40.15825166 -6.01703252 33.43235743 C-6.01439518 29.99736807 -6.01339098 26.56239822 -6.01668167 23.12740898 C-6.01938987 19.41215948 -6.0160161 15.69696586 -6.01100159 11.98171997 C-6.01323231 10.88417656 -6.01546303 9.78663316 -6.01776135 8.65583086 C-6.0151536 7.66865556 -6.01254586 6.68148026 -6.00985909 5.66439056 C-6.00969673 4.80562553 -6.00953438 3.94686049 -6.00936711 3.06207228 C-5.75652075 -0.84643634 -3.34192104 0.007264 0 0 Z " fill="#525252" transform="translate(1505.884017944336,42.875579833984375)"/>
<path d="M0 0 C1.17291066 0.00149235 2.34582133 0.00298469 3.55427474 0.00452226 C4.84900389 0.01132605 6.14373305 0.01812984 7.47769642 0.02513981 C8.86209262 0.02883258 10.24649007 0.03208211 11.63088828 0.03492504 C15.4436617 0.04404411 19.25638782 0.05947628 23.06913579 0.07590783 C27.17749503 0.09251831 31.28586994 0.1033188 35.3942461 0.11481571 C42.5151317 0.13554238 49.63599693 0.1599712 56.75686169 0.18689632 C67.05250692 0.22582048 77.34816422 0.25918954 87.64383302 0.29119159 C104.34683539 0.34326092 121.04981933 0.39983893 137.75279713 0.4592371 C153.98065441 0.51693605 170.20851666 0.57252103 186.43639088 0.62525272 C187.9361739 0.6301273 187.9361739 0.6301273 189.46625557 0.63510036 C194.48210742 0.65138975 199.49795941 0.66763747 204.51381147 0.68386447 C246.142243 0.81859237 287.77064581 0.96090816 329.39903736 1.10743046 C329.72903736 11.99743046 330.05903736 22.88743046 330.39903736 34.10743046 C329.40903736 33.77743046 328.41903736 33.44743046 327.39903736 33.10743046 C327.39903736 23.20743046 327.39903736 13.30743046 327.39903736 3.10743046 C216.51903736 3.10743046 105.63903736 3.10743046 -8.60096264 3.10743046 C-8.60096264 2.44743046 -8.60096264 1.78743046 -8.60096264 1.10743046 C-5.45945643 0.06026172 -3.29630868 -0.0110821 0 0 Z " fill="#787879" transform="translate(684.600962638855,429.89256954193115)"/>
<path d="M0 0 C0.99 0.495 0.99 0.495 2 1 C1.21238281 1.95777344 0.42476562 2.91554687 -0.38671875 3.90234375 C-6.21152509 11.01352171 -11.94871388 18.17274398 -17.5 25.5 C-22.31903749 31.8595853 -27.27595846 38.0846162 -32.33154297 44.25732422 C-36.50428726 49.36156374 -40.54320736 54.55257054 -44.54296875 59.79296875 C-47.14403676 63.19855558 -49.7877539 66.56972503 -52.4375 69.9375 C-52.88802734 70.51250244 -53.33855469 71.08750488 -53.80273438 71.67993164 C-56.21084998 74.74873757 -58.64161101 77.79603282 -61.10546875 80.8203125 C-61.61086182 81.44687744 -62.11625488 82.07344238 -62.63696289 82.71899414 C-63.60393495 83.91696067 -64.57802551 85.10922835 -65.56030273 86.29467773 C-69.16575655 90.65843463 -69.16575655 90.65843463 -70 96 C-68.43172435 98.70217861 -66.42977675 100.9691777 -64.375 103.3125 C-63.1701683 104.73793935 -61.96575313 106.16373085 -60.76171875 107.58984375 C-60.1382959 108.31800293 -59.51487305 109.04616211 -58.87255859 109.79638672 C-55.91742415 113.27396736 -53.05500686 116.82513663 -50.1875 120.375 C-49.09785681 121.71630879 -48.00801957 123.05745996 -46.91796875 124.3984375 C-43.9745953 128.02668782 -41.05637102 131.67453236 -38.14453125 135.328125 C-35.90136271 138.12289236 -33.6394877 140.90175056 -31.37524414 143.67944336 C-26.71844367 149.39249483 -22.09372526 155.12423268 -17.5625 160.9375 C-13.46053609 166.1975501 -9.25313173 171.36156714 -5 176.5 C-3.23939864 178.63465652 -1.48017249 180.77043093 0.27783203 182.90722656 C1.42053427 184.29583496 2.56472706 185.68321818 3.71044922 187.06933594 C5.29702297 188.99598975 6.86913774 190.93351103 8.4375 192.875 C8.91638672 193.45185547 9.39527344 194.02871094 9.88867188 194.62304688 C11.18359375 196.2421875 11.18359375 196.2421875 13 199 C12.67 199.99 12.34 200.98 12 202 C0.32602006 202.34854858 -11.34671064 202.61455877 -23.02484608 202.77718258 C-28.4486987 202.85526554 -33.8689767 202.96102101 -39.29077148 203.1315918 C-44.53012946 203.29537907 -49.76606634 203.38441574 -55.0077877 203.42315865 C-57.00045333 203.45073884 -58.99294467 203.50460861 -60.9841404 203.58595085 C-76.09941818 204.17849382 -76.09941818 204.17849382 -80.86602974 200.59851074 C-84.25465459 197.08872777 -86.6932443 193.10037936 -89.00264168 188.82514381 C-90.26863253 186.50840837 -91.75262674 184.38723723 -93.28637695 182.24072266 C-94.19057192 180.88420227 -95.09124294 179.52532602 -95.98828125 178.1640625 C-96.74211845 177.03012306 -96.74211845 177.03012306 -97.51118469 175.87327576 C-99.11492759 173.45935766 -100.71375267 171.04222881 -102.3125 168.625 C-103.43827178 166.92871109 -104.56441716 165.23267008 -105.69091797 163.53686523 C-107.98997722 160.07523301 -110.28735383 156.61249349 -112.58349609 153.14892578 C-117.42954121 145.84182455 -122.29614433 138.54844157 -127.16244507 131.25482178 C-129.47635488 127.78634701 -131.78892936 124.31698231 -134.1015625 120.84765625 C-134.86539046 119.70189984 -135.62922432 118.55614738 -136.39306641 117.41040039 C-136.92335449 116.61496826 -137.45364258 115.81953613 -138 115 C-137.505 114.01 -137.505 114.01 -137 113 C-124.12950171 132.00981923 -111.27456505 151.03008575 -98.4375 170.0625 C-97.81026031 170.99228668 -97.18302063 171.92207336 -96.53677368 172.8800354 C-94.73126702 175.55655363 -92.92611747 178.23331232 -91.12109375 180.91015625 C-90.5906546 181.69646423 -90.06021545 182.48277222 -89.51370239 183.29290771 C-89.00701019 184.04453186 -88.50031799 184.79615601 -87.97827148 185.57055664 C-87.46594971 186.29413864 -86.95362793 187.01772064 -86.42578125 187.76322937 C-85 190 -85 190 -83.99121094 192.53425598 C-82.63821376 195.52791702 -81.65822026 197.03197028 -79 199 C-72.54282895 200.68956642 -65.55106659 200.04229069 -58.9453125 199.87890625 C-56.95851527 199.86211149 -54.97168065 199.84930441 -52.98483276 199.84031677 C-47.76583189 199.80602031 -42.54910035 199.71767475 -37.33099365 199.61798096 C-32.00222474 199.52576456 -26.67308755 199.48477724 -21.34375 199.43945312 C-10.89483848 199.34304972 -0.44760824 199.18953021 10 199 C9.6346666 198.55164291 9.26933319 198.10328583 8.89292908 197.64134216 C7.20790935 195.57262763 5.52387194 193.50311551 3.83984375 191.43359375 C3.26536499 190.72859741 2.69088623 190.02360107 2.09899902 189.29724121 C-1.46033756 184.92146211 -4.97359908 180.51414164 -8.4375 176.0625 C-13.12473837 170.06016569 -17.95071295 164.18162199 -22.80834961 158.31665039 C-26.43689126 153.92598102 -30.00158717 149.49489895 -33.5 145 C-38.23070438 138.92283046 -43.10787054 132.97468142 -48.01513672 127.03955078 C-51.68959286 122.5947259 -55.34455303 118.13854418 -58.91015625 113.60546875 C-60.63727159 111.45222402 -62.39815497 109.34275318 -64.18359375 107.23828125 C-64.74095215 106.57006348 -65.29831055 105.9018457 -65.87255859 105.21337891 C-66.97937352 103.88654414 -68.09784956 102.56933046 -69.22900391 101.26318359 C-72.9667001 96.74036774 -72.9667001 96.74036774 -73.1171875 93.39453125 C-71.67059881 90.29397577 -69.82523246 88.06984279 -67.5625 85.5 C-66.64369122 84.43674317 -65.72708985 83.37157553 -64.8125 82.3046875 C-64.34328125 81.7590918 -63.8740625 81.21349609 -63.390625 80.65136719 C-61.19359024 78.04238841 -59.1258373 75.34015679 -57.0625 72.625 C-56.22939961 71.53237443 -55.39606347 70.43992857 -54.5625 69.34765625 C-53.93408203 68.52418701 -53.93408203 68.52418701 -53.29296875 67.68408203 C-51.07260248 64.79207173 -48.81804728 61.92710487 -46.5625 59.0625 C-45.87619507 58.19069092 -45.87619507 58.19069092 -45.17602539 57.30126953 C-44.24789964 56.12274369 -43.31959524 54.94435851 -42.39111328 53.76611328 C-40.09125763 50.84628952 -37.79584055 47.92298107 -35.5 45 C-34.5833549 43.83331639 -33.66668823 42.66664973 -32.75 41.5 C-32.29625 40.9225 -31.8425 40.345 -31.375 39.75 C-30 38 -28.625 36.25 -27.25 34.5 C-26.7960083 33.92217773 -26.3420166 33.34435547 -25.87426758 32.74902344 C-24.96009985 31.58556677 -24.04587484 30.42215511 -23.1315918 29.25878906 C-20.801213 26.29338101 -18.47191885 23.32713143 -16.14453125 20.359375 C-10.79824099 13.54434382 -5.4281606 6.75020545 0 0 Z " fill="#535353" transform="translate(1714,126)"/>
<path d="M0 0 C0.71884369 -0.00350464 1.43768738 -0.00700928 2.17831421 -0.01062012 C4.56037991 -0.01944059 6.9421499 -0.0135873 9.32421875 -0.00683594 C10.9756679 -0.0081825 12.62711666 -0.01012296 14.27856445 -0.01263428 C17.74206308 -0.01558596 21.20545865 -0.01128651 24.66894531 -0.00195312 C29.11467186 0.00944148 33.56015695 0.00288224 38.00587463 -0.00909805 C41.41672596 -0.01631548 44.82751977 -0.01402928 48.2383728 -0.00884247 C49.87787911 -0.00750564 51.5173906 -0.00915483 53.15689087 -0.01380157 C55.44588101 -0.01886494 57.73447683 -0.01115956 60.0234375 0 C61.97963013 0.00238678 61.97963013 0.00238678 63.9753418 0.00482178 C67.01171875 0.25878906 67.01171875 0.25878906 69.01171875 2.25878906 C69.25222778 4.39749146 69.25222778 4.39749146 69.23876953 7.07568359 C69.23861847 8.07657013 69.23846741 9.07745667 69.23831177 10.1086731 C69.2279892 11.19203949 69.21766663 12.27540588 69.20703125 13.39160156 C69.20420135 14.49857391 69.20137146 15.60554626 69.19845581 16.74606323 C69.18723394 20.29208044 69.16212566 23.83784781 69.13671875 27.38378906 C69.12669155 29.78352501 69.11756525 32.1832649 69.109375 34.58300781 C69.08728807 40.47502057 69.05379082 46.36688697 69.01171875 52.25878906 C70.67726807 52.24307861 70.67726807 52.24307861 72.37646484 52.22705078 C76.48759754 52.19090957 80.59871614 52.1679101 84.70996094 52.14892578 C86.49090942 52.13885475 88.27184132 52.12519721 90.05273438 52.10791016 C92.60941658 52.08370993 95.1658806 52.07231722 97.72265625 52.06347656 C98.92116714 52.04799271 98.92116714 52.04799271 100.14389038 52.03219604 C102.10129095 52.0317968 104.05814952 52.13637838 106.01171875 52.25878906 C108.01171875 54.25878906 108.01171875 54.25878906 108.25222778 56.85305786 C108.24778656 57.95003998 108.24334534 59.04702209 108.23876953 60.17724609 C108.23854294 62.03894943 108.23854294 62.03894943 108.23831177 63.93826294 C108.22809775 65.29771076 108.21766575 66.65715696 108.20703125 68.01660156 C108.20330159 69.40379635 108.2004544 70.79099377 108.19845581 72.17819214 C108.19081559 75.83118957 108.17116391 79.48402823 108.14904785 83.13696289 C108.12859771 86.86374768 108.11945588 90.5905581 108.109375 94.31738281 C108.08791826 101.63125732 108.05377778 108.94500095 108.01171875 116.25878906 C107.35171875 116.25878906 106.69171875 116.25878906 106.01171875 116.25878906 C106.01171875 95.79878906 106.01171875 75.33878906 106.01171875 54.25878906 C93.14171875 54.25878906 80.27171875 54.25878906 67.01171875 54.25878906 C67.01171875 37.09878906 67.01171875 19.93878906 67.01171875 2.25878906 C42.59171875 2.25878906 18.17171875 2.25878906 -6.98828125 2.25878906 C-6.98828125 19.41878906 -6.98828125 36.57878906 -6.98828125 54.25878906 C-15.89828125 54.25878906 -24.80828125 54.25878906 -33.98828125 54.25878906 C-33.98828125 53.59878906 -33.98828125 52.93878906 -33.98828125 52.25878906 C-25.73828125 52.25878906 -17.48828125 52.25878906 -8.98828125 52.25878906 C-9.01148438 48.67261719 -9.0346875 45.08644531 -9.05859375 41.39160156 C-9.07417778 37.92985386 -9.08632964 34.46811002 -9.09814453 31.00634766 C-9.10822079 28.59487162 -9.12188206 26.18340785 -9.13916016 23.77197266 C-9.16333715 20.31181821 -9.17474794 16.85182486 -9.18359375 13.39160156 C-9.19391632 12.30823517 -9.20423889 11.22486877 -9.21487427 10.1086731 C-9.21502533 9.10778656 -9.21517639 8.10690002 -9.21533203 7.07568359 C-9.21977325 6.19188019 -9.22421448 5.30807678 -9.22879028 4.39749146 C-8.62862322 -0.93943377 -4.32133025 0.00527252 0 0 Z " fill="#999999" transform="translate(940.98828125,58.7412109375)"/>
<path d="M0 0 C0.66 0 1.32 0 2 0 C2.02312684 8.32728947 2.04091683 16.65456563 2.05181217 24.98187923 C2.05704026 28.84820118 2.06413654 32.71450121 2.07543945 36.58081055 C2.086271 40.30903401 2.0922774 44.03723634 2.09487724 47.76547432 C2.09673101 49.19089656 2.10035071 50.61631759 2.10573006 52.04173088 C2.11294393 54.03163408 2.11340808 56.02155834 2.11352539 58.01147461 C2.115746 59.14620712 2.11796661 60.28093964 2.12025452 61.45005798 C2 64 2 64 1 65 C-1.14386657 65.15858842 -3.29266838 65.25129298 -5.44140625 65.31640625 C-6.74658203 65.35830078 -8.05175781 65.40019531 -9.39648438 65.44335938 C-10.7851533 65.48317608 -12.17382522 65.52288825 -13.5625 65.5625 C-14.95509183 65.60567989 -16.34767028 65.649294 -17.74023438 65.69335938 C-21.16004801 65.79985876 -24.57993763 65.90186923 -28 66 C-18.57899121 74.75783878 -18.57899121 74.75783878 -8.95703125 83.29296875 C-6.6144085 85.33633431 -4.30726578 87.41680859 -2 89.5 C0.98062721 92.18983431 3.97245233 94.86310364 7 97.5 C10.89512811 100.89253093 14.72782763 104.35194201 18.5625 107.8125 C21.32603473 110.29259527 24.12041622 112.73483362 26.921875 115.171875 C30.21714019 118.07071731 33.45849702 121.02907691 36.703125 123.984375 C38.73812959 125.77019535 40.80900749 127.41203295 43 129 C42.67 129.66 42.34 130.32 42 131 C41.29875 130.35933594 40.5975 129.71867188 39.875 129.05859375 C34.96642499 124.5835206 30.04099465 120.1348113 25.02734375 115.77734375 C22.66510827 113.70640513 20.33204147 111.60487152 18 109.5 C15.01937279 106.81016569 12.02754767 104.13689636 9 101.5 C5.10487189 98.10746907 1.27217237 94.64805799 -2.5625 91.1875 C-4.69417481 89.27445851 -6.8401911 87.38112388 -9 85.5 C-12.88330649 82.11776532 -16.70466684 78.66920334 -20.52734375 75.21875 C-23.49552245 72.55536058 -26.4941035 69.92866658 -29.50390625 67.3125 C-30.35652941 66.56450684 -31.19798378 65.80201622 -32 65 C-32.33 75.89 -32.66 86.78 -33 98 C-33.66 97.67 -34.32 97.34 -35 97 C-35 86.44 -35 75.88 -35 65 C-37.97 65 -40.94 65 -44 65 C-44 64.34 -44 63.68 -44 63 C-29.48 63 -14.96 63 0 63 C0 42.21 0 21.42 0 0 Z " fill="#404040" transform="translate(1047,263)"/>
<path d="M0 0 C0.66 0 1.32 0 2 0 C2 9.57 2 19.14 2 29 C26.42 29 50.84 29 76 29 C76 29.66 76 30.32 76 31 C66.23849012 31.02312446 56.4769867 31.04091561 46.71545506 31.05181217 C42.18325906 31.05704078 37.65108173 31.06413801 33.11889648 31.07543945 C28.7487717 31.08626914 24.37866492 31.09227701 20.00852776 31.09487724 C18.33749037 31.09673135 16.66645403 31.10035168 14.99542427 31.10573006 C12.66302449 31.11294159 10.33070007 31.1139909 7.99829102 31.11352539 C7.3005809 31.11712067 6.60287079 31.12071594 5.88401794 31.12442017 C1.11405216 31.11405216 1.11405216 31.11405216 0 30 C-0.15764405 28.22130274 -0.25100677 26.43681524 -0.31640625 24.65234375 C-0.35830078 23.57275391 -0.40019531 22.49316406 -0.44335938 21.38085938 C-0.48267578 20.24455078 -0.52199219 19.10824219 -0.5625 17.9375 C-0.60568359 16.79732422 -0.64886719 15.65714844 -0.69335938 14.48242188 C-0.79982839 11.65507805 -0.90184207 8.82764262 -1 6 C-1.99 6 -2.98 6 -4 6 C-2.7260411 3.96166576 -1.38938077 1.96147874 0 0 Z " fill="#3F3F3F" transform="translate(1204,297)"/>
<path d="M0 0 C9.59288991 -0.66797686 18.13514517 0.71512178 25.9375 6.6875 C29.57273694 10.10427318 31.48530798 14.29598753 33 19 C33 19.66 33 20.32 33 21 C55.77 20.67 78.54 20.34 102 20 C101.505 21.485 101.505 21.485 101 23 C92.18582412 23.11578185 83.37190942 23.20465752 74.5571394 23.25906086 C70.46417089 23.28517022 66.37172209 23.3205912 62.27905273 23.37719727 C58.3303192 23.43147158 54.38208589 23.46141045 50.43300819 23.47438622 C48.92542963 23.48363456 47.41787886 23.50169476 45.91051292 23.52865028 C43.80065862 23.56488381 41.69287836 23.56994835 39.58276367 23.56762695 C37.78073738 23.58428154 37.78073738 23.58428154 35.94230652 23.60127258 C33 23 33 23 31.14619446 20.59342957 C30.76795029 19.73759781 30.38970612 18.88176605 30 18 C29.69578125 17.319375 29.3915625 16.63875 29.078125 15.9375 C28.80484375 15.298125 28.5315625 14.65875 28.25 14 C25.49477767 8.44765083 21.47000697 5.96863018 15.8125 3.75 C10.56961644 2.71861307 5.32782996 2.33244259 0 2 C0 1.34 0 0.68 0 0 Z " fill="#4D4D4D" transform="translate(1383,163)"/>
<path d="M0 0 C0.33 0 0.66 0 1 0 C1 17.49 1 34.98 1 53 C-7.91 53 -16.82 53 -26 53 C-26 52.34 -26 51.68 -26 51 C-17.75 51 -9.5 51 -1 51 C-1.01160156 47.40222656 -1.02320313 43.80445313 -1.03515625 40.09765625 C-1.04294557 36.62931405 -1.04902304 33.16097281 -1.05493164 29.69262695 C-1.05997349 27.27432828 -1.06680678 24.85603267 -1.07543945 22.43774414 C-1.08751157 18.97020717 -1.09322963 15.50271034 -1.09765625 12.03515625 C-1.10281754 10.94662857 -1.10797882 9.85810089 -1.11329651 8.73658752 C-1.11340981 7.23514442 -1.11340981 7.23514442 -1.11352539 5.70336914 C-1.115746 4.81734512 -1.11796661 3.93132111 -1.12025452 3.01844788 C-1 1 -1 1 0 0 Z " fill="#7B7B7B" transform="translate(933,60)"/>
<path d="M0 0 C17.2613486 3.6321475 28.73664945 12.85942435 40 26 C40.33 18.08 40.66 10.16 41 2 C41.66 2 42.32 2 43 2 C43 11.57 43 21.14 43 31 C39.61327261 29.87109087 39.24760829 29.2708534 37.3125 26.4375 C27.77269236 13.41601074 15.40540702 6.28868474 0 2 C0 1.34 0 0.68 0 0 Z " fill="#434343" transform="translate(1163,111)"/>
<path d="M0 0 C1.64574566 -0.02688151 3.29161413 -0.04634123 4.9375 -0.0625 C5.85402344 -0.07410156 6.77054688 -0.08570313 7.71484375 -0.09765625 C10 0 10 0 11 1 C11.08847743 3.52094076 11.11527301 6.01430893 11.09765625 8.53515625 C11.0962413 9.28840683 11.09482635 10.04165741 11.09336853 10.81773376 C11.08775376 13.2326956 11.07519883 15.64756601 11.0625 18.0625 C11.0574869 19.69596221 11.05292366 21.32942586 11.04882812 22.96289062 C11.03777954 26.97529585 11.02050506 30.98763241 11 35 C10.34 34.67 9.68 34.34 9 34 C9 23.44 9 12.88 9 2 C6.03 2 3.06 2 0 2 C0 1.34 0 0.68 0 0 Z " fill="#969696" transform="translate(1003,326)"/>
<path d="M0 0 C0.66 0 1.32 0 2 0 C2 9.57 2 19.14 2 29 C1.34 29.33 0.68 29.66 0 30 C-0.33 22.08 -0.66 14.16 -1 6 C-1.99 6 -2.98 6 -4 6 C-2.7260411 3.96166576 -1.38938077 1.96147874 0 0 Z " fill="#313131" transform="translate(1204,297)"/>
<path d="M0 0 C0.33 0 0.66 0 1 0 C1.33 10.56 1.66 21.12 2 32 C1.01 31.67 0.02 31.34 -1 31 C-1.02465622 26.74585377 -1.04283899 22.49174502 -1.05493164 18.23754883 C-1.05997101 16.78929927 -1.06680253 15.34105483 -1.07543945 13.89282227 C-1.08752247 11.81525412 -1.09323211 9.73775303 -1.09765625 7.66015625 C-1.10289307 6.40855713 -1.10812988 5.15695801 -1.11352539 3.86743164 C-1 1 -1 1 0 0 Z " fill="#9E9E9E" transform="translate(1013,432)"/>
<path d="M0 0 C0.66 0.33 1.32 0.66 2 1 C0.68 4.63 -0.64 8.26 -2 12 C-1.34 12 -0.68 12 0 12 C0 12.66 0 13.32 0 14 C-1.32 14 -2.64 14 -4 14 C-3.00956295 9.16371695 -2.04301154 4.52381127 0 0 Z " fill="#69C8FF" transform="translate(509,183)"/>
<path d="M0 0 C0.66 0.66 1.32 1.32 2 2 C-0.97 4.475 -0.97 4.475 -4 7 C-4 4 -4 4 -2 1.8125 C-1.34 1.214375 -0.68 0.61625 0 0 Z " fill="#101010" transform="translate(1084,131)"/>
</svg>
