<?xml version="1.0" encoding="UTF-8"?>
<svg version="1.1" xmlns="http://www.w3.org/2000/svg" width="1662" height="796">
<path d="M0 0 C1.82608807 0.98606795 3.67160609 1.91880511 5.53027344 2.84179688 C22.47166235 11.36130099 37.55288984 23.13779927 51.50683594 35.89257812 C53.46919108 37.66599029 55.46595003 39.36392433 57.50683594 41.04492188 C60.55567715 43.64914041 63.16059337 46.48248952 65.74902344 49.54101562 C67.33580886 51.41222484 68.9432981 53.25071959 70.57714844 55.08007812 C77.81363987 63.24477677 84.06638506 71.71748181 89.81933594 80.98242188 C90.23425293 81.64612793 90.64916992 82.30983398 91.07666016 82.99365234 C101.0735813 99.1094118 109.04662683 115.91613784 114.81933594 133.98242188 C115.04073242 134.65950195 115.26212891 135.33658203 115.49023438 136.03417969 C123.37257845 160.32939292 127.07031139 186.43924867 125.81933594 211.98242188 C125.75770264 213.29484863 125.75770264 213.29484863 125.69482422 214.63378906 C123.06941159 265.04506673 104.85011016 308.94138957 74.81933594 348.98242188 C154.67933594 348.98242188 234.53933594 348.98242188 316.81933594 348.98242188 C316.81933594 337.10242188 316.81933594 325.22242188 316.81933594 312.98242188 C321.13595939 312.98242188 321.36074322 313.0242642 324.20996094 315.79882812 C324.83298096 316.39477783 325.45600098 316.99072754 326.09790039 317.60473633 C327.07376099 318.56512817 327.07376099 318.56512817 328.06933594 319.54492188 C329.42140967 320.84262137 330.7742656 322.13950641 332.12792969 323.43554688 C332.77101074 324.05623047 333.4140918 324.67691406 334.07666016 325.31640625 C336.62083878 327.74866667 339.26638748 330.04962245 341.93261719 332.34570312 C344.25592381 334.3611596 346.53682059 336.4209065 348.81933594 338.48242188 C351.79996314 341.17225618 354.79178826 343.84552551 357.81933594 346.48242188 C361.71446404 349.87495281 365.54716356 353.33436388 369.38183594 356.79492188 C371.51351074 358.70796337 373.65952704 360.601298 375.81933594 362.48242188 C378.84688361 365.11931824 381.83870873 367.79258757 384.81933594 370.48242188 C393.08265496 378.01758186 393.08265496 378.01758186 401.81933594 384.98242188 C401.24547634 388.23341746 400.38006772 389.76676459 397.94042969 391.97070312 C397.35293945 392.50856445 396.76544922 393.04642578 396.16015625 393.60058594 C395.53206055 394.1597168 394.90396484 394.71884766 394.25683594 395.29492188 C393.61713867 395.8759668 392.97744141 396.45701172 392.31835938 397.05566406 C388.49710829 400.51631002 384.64371144 403.94172166 380.74121094 407.31054688 C378.40828519 409.3400026 376.11422348 411.41006888 373.81933594 413.48242188 C370.20257249 416.74633036 366.55543985 419.97033137 362.88183594 423.16992188 C360.50969165 425.25453352 358.16377529 427.36670832 355.81933594 429.48242188 C352.20257249 432.74633036 348.55543985 435.97033137 344.88183594 439.16992188 C342.50969165 441.25453352 340.16377529 443.36670832 337.81933594 445.48242188 C333.52138241 449.35784234 329.19873596 453.19932409 324.81933594 456.98242188 C323.42714844 458.21992187 323.42714844 458.21992187 322.00683594 459.48242188 C321.28496094 459.97742188 320.56308594 460.47242188 319.81933594 460.98242188 C318.82933594 460.65242188 317.83933594 460.32242187 316.81933594 459.98242188 C316.81933594 449.09242188 316.81933594 438.20242188 316.81933594 426.98242188 C312.49340836 426.99494995 308.16748077 427.00747803 303.71046448 427.02038574 C263.2850444 427.13726203 222.85961862 427.25198897 182.43418643 427.36460415 C177.04816526 427.37961008 171.66214414 427.39463357 166.27612305 427.40966797 C165.20463998 427.41265858 164.13315691 427.4156492 163.02920466 427.41873044 C148.14649758 427.4603056 133.26379344 427.50281386 118.38109128 427.54611385 C92.63264809 427.62102576 66.8842001 427.69399165 41.13574219 427.76367188 C40.12419478 427.76641349 39.11264738 427.76915511 38.07044703 427.77197981 C-41.01336222 427.98593194 -120.09660775 428.04659988 -199.18066406 427.98242188 C-199.18028434 428.57662963 -199.17990462 429.17083738 -199.17951339 429.78305143 C-199.15715836 464.96355765 -199.13998918 500.14406266 -199.12959873 535.3245745 C-199.12834796 539.54426387 -199.12705364 543.76395323 -199.12573242 547.98364258 C-199.12533896 549.24379324 -199.12533896 549.24379324 -199.12493754 550.52940149 C-199.1205806 564.15046613 -199.11269292 577.77152658 -199.10351127 591.39258873 C-199.0941754 605.35841655 -199.08860859 619.32424216 -199.08657557 633.29007298 C-199.0852002 641.91482859 -199.08084888 650.53957233 -199.0727476 659.16432429 C-199.06748096 665.07042814 -199.06585958 670.9765258 -199.06716269 676.88263183 C-199.06780619 680.29533792 -199.06678711 683.7080232 -199.06145859 687.12072563 C-199.05652894 690.81194096 -199.05766307 694.5031043 -199.06040955 698.19432068 C-199.05604028 699.82998612 -199.05604028 699.82998612 -199.05158275 701.49869531 C-199.0535738 702.47952052 -199.05556485 703.46034572 -199.05761623 704.47089291 C-199.05723651 705.32412449 -199.05685679 706.17735607 -199.05646557 707.05644315 C-199.18066406 708.98242188 -199.18066406 708.98242188 -200.18066406 709.98242188 C-201.69652518 710.08037257 -203.21693959 710.10874002 -204.73596191 710.10940552 C-205.72034744 710.11222534 -206.70473297 710.11504517 -207.71894836 710.11795044 C-208.80781845 710.11592621 -209.89668854 710.11390198 -211.01855469 710.11181641 C-212.15826218 710.11356873 -213.29796967 710.11532104 -214.47221375 710.11712646 C-218.26046242 710.12154773 -222.04866486 710.11860602 -225.83691406 710.11523438 C-228.45625823 710.11590733 -231.07560234 710.11687729 -233.69494629 710.11813354 C-239.19295762 710.11995507 -244.69095554 710.11754937 -250.18896484 710.11279297 C-256.55383393 710.10735038 -262.91867099 710.10911304 -269.2835393 710.11461937 C-275.39550738 710.11969616 -281.50746122 710.11916898 -287.61943054 710.11623764 C-290.22547917 710.1155681 -292.83152861 710.11639774 -295.43757629 710.11871719 C-299.07266439 710.1212421 -302.70769002 710.11740541 -306.34277344 710.11181641 C-307.43164352 710.11384064 -308.52051361 710.11586487 -309.64237976 710.11795044 C-310.62676529 710.11513062 -311.61115082 710.11231079 -312.62536621 710.10940552 C-313.48594383 710.10902849 -314.34652145 710.10865147 -315.23317719 710.10826302 C-317.18066406 709.98242188 -317.18066406 709.98242188 -318.18066406 708.98242188 C-318.2793094 707.02864516 -318.30622086 705.07124036 -318.3065052 703.11497498 C-318.30911295 701.83171105 -318.3117207 700.54844713 -318.31440747 699.22629642 C-318.31224494 697.78359526 -318.30998826 696.34089424 -318.30764771 694.89819336 C-318.30879854 693.38011608 -318.3103858 691.86203908 -318.31237495 690.34396267 C-318.3165735 686.15236598 -318.31447522 681.96079188 -318.31138873 677.76919508 C-318.30913698 673.25653901 -318.31261312 668.74388697 -318.31536865 664.23123169 C-318.31982776 655.38302699 -318.31884926 646.53483075 -318.31595601 637.68662572 C-318.31370253 630.49891798 -318.31338922 623.31121263 -318.31447983 616.12350464 C-318.31463306 615.10259592 -318.31478629 614.08168719 -318.31494417 613.02984184 C-318.31526388 610.9562331 -318.31558809 608.88262437 -318.31591676 606.80901563 C-318.31877197 587.34029909 -318.3154839 567.87158726 -318.3101164 548.40287149 C-318.30564832 531.67840937 -318.30642424 514.95395418 -318.31103516 498.22949219 C-318.31638021 478.83298281 -318.31849727 459.43647755 -318.31542289 440.03996754 C-318.31510433 437.97375806 -318.31478996 435.90754859 -318.31447983 433.84133911 C-318.31424841 432.31620379 -318.31424841 432.31620379 -318.31401233 430.76025766 C-318.31314696 423.57673286 -318.31461046 416.39321067 -318.31695938 409.20968628 C-318.31975681 400.46176314 -318.31902033 391.71384899 -318.31367864 382.96592689 C-318.31104085 378.49805313 -318.31003786 374.03019437 -318.31332779 369.56232071 C-318.31628917 365.47903121 -318.3147006 361.39577074 -318.30935024 357.31248391 C-318.30822537 355.82865685 -318.30881875 354.34482738 -318.31122603 352.86100185 C-318.31422948 350.85729246 -318.31057698 348.85357628 -318.3065052 346.84986877 C-318.30634285 345.73289392 -318.3061805 344.61591906 -318.30601323 343.46509647 C-318.18066406 340.98242188 -318.18066406 340.98242188 -317.18066406 339.98242188 C-315.80083288 339.89041708 -314.41629729 339.86787886 -313.03341293 339.87334061 C-311.68392771 339.87497928 -311.68392771 339.87497928 -310.30718017 339.87665105 C-309.30731401 339.88297449 -308.30744785 339.88929793 -307.27728271 339.89581299 C-306.22387703 339.89848639 -305.17047135 339.9011598 -304.08514428 339.90391421 C-300.52548161 339.91404228 -296.96588598 339.93123816 -293.40625 339.94824219 C-290.86565305 339.95670279 -288.32505437 339.96465615 -285.78445435 339.97213745 C-281.00934644 339.98672741 -276.23425208 340.00283753 -271.45915762 340.02127287 C-262.06444085 340.057507 -252.66972865 340.08140523 -243.27496338 340.10076904 C-241.79624739 340.10387967 -240.31753141 340.10699735 -238.83881545 340.11012197 C-236.59727757 340.11484817 -234.35573967 340.11956624 -232.11420171 340.12425436 C-223.65458167 340.14199305 -215.1949652 340.16106723 -206.73535156 340.18164062 C-205.96176726 340.18351768 -205.18818296 340.18539473 -204.3911567 340.18732867 C-191.88075555 340.21815751 -179.370445 340.26378587 -166.86010882 340.31405035 C-154.0106586 340.36523793 -141.16125601 340.39714804 -128.3117125 340.41219401 C-120.39078672 340.42213761 -112.47021418 340.44740922 -104.54941002 340.49265072 C-98.46526952 340.52586405 -92.38138818 340.53256796 -86.29714584 340.5296669 C-83.80956583 340.53262941 -81.32197838 340.54412628 -78.8344841 340.564991 C-60.89638889 340.82752093 -60.89638889 340.82752093 -44.18066406 334.98242188 C-42.56083402 334.22839906 -40.93994795 333.47663469 -39.31738281 332.72851562 C-37.82831255 331.97065457 -36.34520441 331.20096953 -34.86816406 330.41992188 C-34.06983154 329.99864014 -33.27149902 329.5773584 -32.44897461 329.14331055 C-24.06110202 324.57906435 -16.57096452 319.00074954 -9.18066406 312.98242188 C-8.34792969 312.31082031 -7.51519531 311.63921875 -6.65722656 310.94726562 C18.72370402 289.60200025 35.78230646 254.8345425 39.57324219 222.08398438 C40.75288948 205.56892232 40.50407202 189.15071986 36.81933594 172.98242188 C36.43648437 171.15517578 36.43648437 171.15517578 36.04589844 169.29101562 C29.29491452 140.58385005 11.96672374 112.39425571 -11.18066406 93.98242188 C-11.67743652 93.58442383 -12.17420898 93.18642578 -12.68603516 92.77636719 C-43.6364845 68.25234007 -80.9450895 59.01634483 -120.04394531 62.21679688 C-125.16375731 62.82193795 -130.16301 63.81354378 -135.18066406 64.98242188 C-136.41945313 65.24925781 -137.65824219 65.51609375 -138.93457031 65.79101562 C-174.52636968 74.2832265 -204.32213484 97.70382789 -224.18066406 127.98242188 C-224.71433594 128.76875 -225.24800781 129.55507812 -225.79785156 130.36523438 C-233.29223858 141.99166181 -238.18030261 155.79701998 -242.18066406 168.98242188 C-240.94840088 168.82845947 -239.7161377 168.67449707 -238.4465332 168.51586914 C-232.61593896 167.87017284 -226.78682195 167.65452608 -220.92675781 167.44726562 C-219.785298 167.40428848 -218.6438382 167.36131134 -217.4677887 167.31703186 C-213.85135413 167.18157414 -210.23477138 167.05067744 -206.61816406 166.91992188 C-204.15396012 166.82842715 -201.68976726 166.73663336 -199.22558594 166.64453125 C-193.21073589 166.42036813 -187.19575784 166.19994123 -181.18066406 165.98242188 C-180.85066406 166.97242188 -180.52066406 167.96242187 -180.18066406 168.98242188 C-181.51660156 171.07617187 -181.51660156 171.07617187 -183.55566406 173.48242188 C-184.30203125 174.37703125 -185.04839844 175.27164063 -185.81738281 176.19335938 C-186.59726562 177.11375 -187.37714844 178.03414062 -188.18066406 178.98242188 C-189.57948926 180.68830626 -190.97528091 182.39668227 -192.36816406 184.10742188 C-193.1196875 185.02394531 -193.87121094 185.94046875 -194.64550781 186.88476562 C-197.58415038 190.47148279 -200.50753602 194.0705575 -203.43066406 197.66992188 C-203.98197998 198.34877441 -204.5332959 199.02762695 -205.10131836 199.72705078 C-206.23133017 201.11861368 -207.36129401 202.51021553 -208.49121094 203.90185547 C-211.75843848 207.92545563 -215.02731167 211.94771885 -218.29589844 215.97021484 C-221.05492809 219.36575164 -223.81351571 222.76164588 -226.57128906 226.15820312 C-231.97595715 232.81395179 -237.38827046 239.46305815 -242.82128906 246.09570312 C-245.69773055 249.61505786 -248.56479816 253.14195379 -251.43066406 256.66992188 C-252.24736572 257.67478638 -252.24736572 257.67478638 -253.08056641 258.69995117 C-255.99123853 262.28234959 -258.89746483 265.86825249 -261.79785156 269.45898438 C-262.3853418 270.18512939 -262.97283203 270.91127441 -263.578125 271.65942383 C-264.70519197 273.05264807 -265.83090751 274.44696698 -266.95507812 275.8425293 C-267.46522461 276.47263916 -267.97537109 277.10274902 -268.50097656 277.75195312 C-268.94715332 278.30471924 -269.39333008 278.85748535 -269.85302734 279.42700195 C-271.222195 281.0310783 -272.67054446 282.51131415 -274.18066406 283.98242188 C-277.2876548 282.62980953 -279.05605498 281.22998621 -281.18066406 278.60742188 C-284.25119817 274.98039438 -287.49633963 271.57771356 -290.86816406 268.23242188 C-291.63326294 267.47227783 -291.63326294 267.47227783 -292.41381836 266.69677734 C-294.00081617 265.1233394 -295.59028852 263.55244526 -297.18066406 261.98242188 C-303.07010584 256.16834772 -308.9178992 250.39205431 -314.29394531 244.09179688 C-318.69113552 239.1756836 -323.48805974 234.61497459 -328.18066406 229.98242188 C-334.08037664 224.15820836 -339.93971127 218.37186474 -345.32519531 212.06054688 C-349.55178217 207.3267696 -354.16437572 202.93816629 -358.68066406 198.48242188 C-369.7887411 187.52325618 -369.7887411 187.52325618 -374.39941406 182.51367188 C-374.94533203 181.92134766 -375.49125 181.32902344 -376.05371094 180.71875 C-377.18066406 178.98242188 -377.18066406 178.98242188 -377.18066406 174.98242188 C-371.63497564 173.8769999 -366.12743604 173.64749842 -360.49316406 173.41992188 C-359.48890381 173.37746338 -358.48464355 173.33500488 -357.44995117 173.29125977 C-348.02428592 172.92201915 -338.61175073 172.88337896 -329.18066406 172.98242188 C-329.10589844 172.25023437 -329.03113281 171.51804688 -328.95410156 170.76367188 C-326.5643651 151.08348925 -320.88892443 132.19686603 -313.18066406 113.98242188 C-312.87435059 113.25007324 -312.56803711 112.51772461 -312.25244141 111.76318359 C-302.99256537 89.95670079 -289.32712446 69.27573367 -273.18066406 51.98242188 C-271.96691352 50.59129652 -270.75825154 49.19570862 -269.55566406 47.79492188 C-232.73884041 5.64600653 -176.34124758 -19.25582839 -121.16137695 -23.83666992 C-80.06542147 -26.33090393 -36.47182137 -19.97869126 0 0 Z " fill="#38B5FE" transform="translate(1013.1806640625,53.017578125)"/>
<path d="M0 0 C0.92548645 -0.00281982 1.8509729 -0.00563965 2.80450439 -0.00854492 C4.33962677 -0.00550858 4.33962677 -0.00550858 5.90576172 -0.00241089 C6.97719421 -0.00416321 8.04862671 -0.00591553 9.15252686 -0.00772095 C12.71351719 -0.01214189 16.27445833 -0.00920062 19.83544922 -0.00582886 C22.29785166 -0.00650183 24.76025404 -0.00747179 27.22265625 -0.00872803 C32.3911197 -0.01020533 37.5595659 -0.0080494 42.72802734 -0.00338745 C49.36985649 0.00230985 56.01164524 -0.00096898 62.6534729 -0.00695992 C67.74048164 -0.01056465 72.82748072 -0.00942734 77.91448975 -0.00683212 C80.36423752 -0.00616261 82.81398615 -0.00699211 85.26373291 -0.00931168 C88.68089132 -0.01183677 92.09798329 -0.00799962 95.51513672 -0.00241089 C96.53855164 -0.00443512 97.56196655 -0.00645935 98.61639404 -0.00854492 C100.00462372 -0.00431519 100.00462372 -0.00431519 101.42089844 0 C102.22985565 0.00037703 103.03881287 0.00075405 103.87228394 0.0011425 C105.71044922 0.12698364 105.71044922 0.12698364 106.71044922 1.12698364 C106.81038451 2.60093735 106.84075113 4.07966319 106.84352779 5.55699825 C106.84776884 6.51975609 106.85200989 7.48251392 106.85637945 8.47444624 C106.85580025 10.0800216 106.85580025 10.0800216 106.85520935 11.71803284 C106.8587362 12.84549819 106.86226304 13.97296353 106.86589676 15.1345945 C106.87664406 18.94513124 106.8802753 22.75564304 106.8840332 26.56619263 C106.88977081 29.28587111 106.89704064 32.00554492 106.90429688 34.72521973 C106.91926277 40.60087696 106.930796 46.4765329 106.94024467 52.35220146 C106.95411419 60.86712632 106.97530449 69.38202145 106.99867321 77.89692498 C107.03663677 91.73638082 107.07158163 105.57584211 107.10327148 119.41531372 C107.10517198 120.24440815 107.10707247 121.07350258 107.10903055 121.92772109 C107.13578911 133.66032874 107.15967811 145.3929405 107.18241555 157.12555654 C107.1848115 158.36146681 107.1848115 158.36146681 107.18725586 159.62234497 C107.18884933 160.44527676 107.19044279 161.26820854 107.19208454 162.11607765 C107.21893727 175.88202884 107.25337888 189.64794893 107.29390961 203.41386658 C107.31857854 211.89506838 107.33696422 220.37623684 107.34706522 228.85746873 C107.35450817 234.68661858 107.36911164 240.5157237 107.38912945 246.3448438 C107.40041953 249.69893195 107.40756444 253.0528869 107.40812111 256.4070034 C107.41680805 285.38577367 108.27980136 314.8183565 128.36279297 337.79495239 C143.60962009 352.94030313 165.22338531 357.91453226 186.08984375 358.15432739 C207.84674389 357.900444 228.80537125 352.53405682 245.02294922 337.31448364 C262.44778389 318.69913232 265.85506899 293.51882554 265.86193848 269.06077576 C265.86617089 267.90783356 265.8704033 266.75489137 265.87476397 265.56701154 C265.88769056 261.73714729 265.89379134 257.9073038 265.89990234 254.0774231 C265.90730905 251.31868681 265.91619072 248.55995576 265.92503357 245.80122375 C265.94330006 239.87879747 265.95817789 233.95637069 265.97080994 228.03392982 C265.98916793 219.47016909 266.01382863 210.90643506 266.04018384 202.34269562 C266.08287935 188.44438419 266.12202289 174.54606545 266.15820312 160.6477356 C266.16036593 159.81741179 266.16252873 158.98708798 266.16475707 158.13160285 C266.18449119 150.54317744 266.20399259 142.95475144 266.2234726 135.36632538 C266.23648137 130.30159997 266.24955564 125.23687473 266.26269531 120.17214966 C266.26485418 119.33950898 266.26701305 118.5068683 266.26923734 117.64899609 C266.30529892 103.78673828 266.34523841 89.9244943 266.3879981 76.06225556 C266.41418012 67.51348751 266.43683269 58.96472372 266.45498168 50.41593476 C266.46761376 44.57020708 266.48372647 38.72449586 266.50263083 32.87878511 C266.51342209 29.50245797 266.52252875 26.12614687 266.52732658 22.74980545 C266.53332869 19.09863037 266.5453542 15.44752491 266.55895996 11.79637146 C266.55940394 10.17882059 266.55940394 10.17882059 266.55985689 8.52859193 C266.56471464 7.55865051 266.56957238 6.58870908 266.57457733 5.5893755 C266.5766933 4.74568655 266.57880927 3.9019976 266.58098936 3.03274232 C266.71044922 1.12698364 266.71044922 1.12698364 267.71044922 0.12698364 C269.13758542 0.02928163 270.56952352 0.00066669 272 0 C272.92548645 -0.00281982 273.8509729 -0.00563965 274.80450439 -0.00854492 C276.33962677 -0.00550858 276.33962677 -0.00550858 277.90576172 -0.00241089 C278.97719421 -0.00416321 280.04862671 -0.00591553 281.15252686 -0.00772095 C284.71351719 -0.01214189 288.27445833 -0.00920062 291.83544922 -0.00582886 C294.29785166 -0.00650183 296.76025404 -0.00747179 299.22265625 -0.00872803 C304.3911197 -0.01020533 309.5595659 -0.0080494 314.72802734 -0.00338745 C321.36985649 0.00230985 328.01164524 -0.00096898 334.6534729 -0.00695992 C339.74048164 -0.01056465 344.82748072 -0.00942734 349.91448975 -0.00683212 C352.36423752 -0.00616261 354.81398615 -0.00699211 357.26373291 -0.00931168 C360.68089132 -0.01183677 364.09798329 -0.00799962 367.51513672 -0.00241089 C368.53855164 -0.00443512 369.56196655 -0.00645935 370.61639404 -0.00854492 C372.00462372 -0.00431519 372.00462372 -0.00431519 373.42089844 0 C374.22985565 0.00037703 375.03881287 0.00075405 375.87228394 0.0011425 C377.71044922 0.12698364 377.71044922 0.12698364 378.71044922 1.12698364 C378.80894173 2.58738011 378.83784064 4.05252762 378.83908367 5.51624107 C378.84230812 6.46996522 378.84553256 7.42368937 378.84885472 8.40631425 C378.84730612 9.46666781 378.84575752 10.52702136 378.84416199 11.61950684 C378.84642754 12.73653854 378.8486931 13.85357024 378.85102731 15.00445139 C378.85740092 18.78016902 378.85653575 22.55585105 378.85571289 26.33157349 C378.85870271 29.02679582 378.86207638 31.72201528 378.8658905 34.41723633 C378.87421956 41.00417741 378.87694656 47.59110955 378.87750288 54.17805545 C378.877978 59.54441115 378.88003259 64.91076391 378.88320351 70.27711868 C378.89202455 85.51827204 378.89662187 100.75941835 378.89587303 116.00057428 C378.8958131 117.23466303 378.8958131 117.23466303 378.89575195 118.49368286 C378.89571107 119.31742588 378.89567019 120.14116891 378.89562807 120.98987384 C378.89522358 134.27322721 378.9047393 147.55655196 378.91889032 160.83989708 C378.93333196 174.5053011 378.94015591 188.17069126 378.93929654 201.83610308 C378.93896672 209.49687124 378.94161692 217.15760959 378.95247459 224.81837082 C378.96168364 231.35798091 378.96367205 237.89754777 378.95696517 244.43716161 C378.95374835 247.76199971 378.95459667 251.08668935 378.96231842 254.41152954 C379.00924098 276.04464648 378.97032772 298.2358294 374.52294922 319.50198364 C374.30936768 320.55957886 374.09578613 321.61717407 373.87573242 322.70681763 C364.66942805 366.17976358 339.07749091 405.57829097 301.71044922 430.12698364 C296.52047587 433.40344971 291.17040789 436.32855738 285.71044922 439.12698364 C285.04464844 439.47213013 284.37884766 439.81727661 283.69287109 440.17288208 C235.04730133 465.10432183 177.1818389 467.68697536 124.71044922 455.12698364 C123.93749512 454.94296997 123.16454102 454.7589563 122.36816406 454.56936646 C80.05938791 444.15341747 44.2020163 417.34821571 21.39575195 380.47756958 C-2.88221669 339.96170776 -5.45785212 295.5257034 -5.41894531 249.53640747 C-5.41975417 246.81590188 -5.42204965 244.09539796 -5.42425537 241.37489319 C-5.42866191 234.80663173 -5.42776044 228.2383818 -5.42484273 221.67011992 C-5.42257203 216.33546013 -5.42228334 211.00080355 -5.42336655 205.66614342 C-5.42351978 204.90314224 -5.42367301 204.14014105 -5.42383089 203.35401862 C-5.42415064 201.80360304 -5.42447486 200.25318745 -5.42480348 198.70277186 C-5.42764229 184.23085563 -5.42439455 169.75894578 -5.41900311 155.2870306 C-5.41451935 142.86592129 -5.41532698 130.44482131 -5.41992188 118.02371216 C-5.42526646 103.56939357 -5.42738573 89.1150805 -5.42430961 74.66076106 C-5.42399107 73.12228215 -5.4236767 71.58380324 -5.42336655 70.04532433 C-5.42321227 69.28847036 -5.423058 68.53161639 -5.42289905 67.75182745 C-5.42203482 62.41304467 -5.42349439 57.0742654 -5.4258461 51.73548317 C-5.42864222 45.24610384 -5.42790911 38.75673663 -5.42256536 32.2673587 C-5.41992844 28.95577706 -5.41945724 25.64421996 -5.42221451 22.33263779 C-5.42492249 18.7519656 -5.4215495 15.17135141 -5.41653442 11.59068298 C-5.41876515 10.53333649 -5.42099587 9.47599 -5.42329419 8.3866027 C-5.42068644 7.43552845 -5.41807869 6.4844542 -5.41539192 5.50455952 C-5.41522957 4.6773582 -5.41506722 3.85015689 -5.41489995 2.99788886 C-5.17205458 -0.62671185 -3.13547473 0.00146133 0 0 Z " fill="#38B6FF" transform="translate(240.28955078125,48.873016357421875)"/>
<path d="M0 0 C2.81351786 1.28895717 4.9325707 2.66268505 7.171875 4.79296875 C7.74969727 5.33727539 8.32751953 5.88158203 8.92285156 6.44238281 C9.82729004 7.30621582 9.82729004 7.30621582 10.75 8.1875 C12.00963593 9.37452696 13.2700465 10.56073245 14.53125 11.74609375 C15.13324219 12.31312012 15.73523437 12.88014648 16.35546875 13.46435547 C18.87484598 15.8169212 21.4692744 18.0760403 24.078125 20.328125 C26.41105074 22.35758073 28.70511245 24.427647 31 26.5 C33.98062721 29.18983431 36.97245233 31.86310364 40 34.5 C43.89512811 37.89253093 47.72782763 41.35194201 51.5625 44.8125 C53.69417481 46.72554149 55.8401911 48.61887612 58 50.5 C61.02754767 53.13689636 64.01937279 55.81016569 67 58.5 C75.26331902 66.03515998 75.26331902 66.03515998 84 73 C83.42614041 76.25099558 82.56073179 77.78434271 80.12109375 79.98828125 C79.53360352 80.52614258 78.94611328 81.06400391 78.34082031 81.61816406 C77.71272461 82.17729492 77.08462891 82.73642578 76.4375 83.3125 C75.79780273 83.89354492 75.15810547 84.47458984 74.49902344 85.07324219 C70.67777235 88.53388815 66.8243755 91.95929978 62.921875 95.328125 C60.58894926 97.35758073 58.29488755 99.427647 56 101.5 C52.38323655 104.76390848 48.73610392 107.98790949 45.0625 111.1875 C42.69035571 113.27211164 40.34443935 115.38428644 38 117.5 C34.38323655 120.76390848 30.73610392 123.98790949 27.0625 127.1875 C24.69035571 129.27211164 22.34443935 131.38428644 20 133.5 C15.70204647 137.37542046 11.37940002 141.21690221 7 145 C6.071875 145.825 5.14375 146.65 4.1875 147.5 C3.1046875 148.2425 3.1046875 148.2425 2 149 C1.01 148.67 0.02 148.34 -1 148 C-1 137.11 -1 126.22 -1 115 C-121.12 115 -241.24 115 -365 115 C-365 114.34 -365 113.68 -365 113 C-364.43796875 112.86464844 -363.8759375 112.72929687 -363.296875 112.58984375 C-318.39528553 101.08897651 -276.13751664 75.15986101 -246.33984375 39.4609375 C-244.70682724 37.68033058 -243.62017656 37.0427891 -241.19989192 36.8758015 C-240.46551281 36.87618122 -239.73113369 36.87656094 -238.97450066 36.87695217 C-238.12753683 36.87496112 -237.280573 36.87297007 -236.40794361 36.87091869 C-235.0042679 36.87528795 -235.0042679 36.87528795 -233.57223511 36.87974548 C-232.08734233 36.87846385 -232.08734233 36.87846385 -230.57245171 36.87715632 C-227.23431825 36.87550088 -223.89623435 36.88102395 -220.55810547 36.88647461 C-218.17360434 36.88675649 -215.78910313 36.88659872 -213.40460205 36.8860321 C-207.58819452 36.88577412 -201.77180339 36.89012215 -195.95539962 36.89646976 C-189.18918114 36.90360777 -182.42296502 36.90511401 -175.6567433 36.90625793 C-163.58968087 36.90844807 -151.52262518 36.91510711 -139.45556641 36.92456055 C-127.73160842 36.93373566 -116.00765226 36.94081601 -104.28369141 36.94506836 C-103.56136392 36.94533108 -102.83903644 36.94559381 -102.09482025 36.94586449 C-98.47121628 36.9471695 -94.84761231 36.94843322 -91.22400832 36.94967639 C-61.14933415 36.96004781 -31.07466786 36.97773927 -1 37 C-1.00785522 35.37203491 -1.00785522 35.37203491 -1.01586914 33.71118164 C-1.03391836 29.69882018 -1.04543171 25.68646233 -1.05493164 21.67407227 C-1.05997204 19.93480832 -1.0668043 18.19554864 -1.07543945 16.45629883 C-1.08751792 13.96174063 -1.09323108 11.46723827 -1.09765625 8.97265625 C-1.10281754 8.19036148 -1.10797882 7.40806671 -1.11329651 6.60206604 C-1.11349226 4.73432886 -1.06199694 2.86670796 -1 1 C-0.67 0.67 -0.34 0.34 0 0 Z " fill="#000000" transform="translate(1331,365)"/>
<path d="M0 0 C0.88034912 0.00563965 1.76069824 0.0112793 2.66772461 0.01708984 C17.45367108 0.29158311 29.50624537 4.84400824 39.88671875 15.578125 C41.25 17.3125 41.25 17.3125 41.25 19.3125 C41.91 19.3125 42.57 19.3125 43.25 19.3125 C43.23839844 18.09691406 43.22679687 16.88132812 43.21484375 15.62890625 C43.20546722 14.04427236 43.19636687 12.45963682 43.1875 10.875 C43.17912109 10.07255859 43.17074219 9.27011719 43.16210938 8.44335938 C43.1534857 6.39954779 43.1977185 4.35566098 43.25 2.3125 C44.89087745 0.67162255 46.76831062 1.18510245 49.02929688 1.18310547 C50.047052 1.17995331 51.06480713 1.17680115 52.11340332 1.17355347 C53.22066772 1.1755777 54.32793213 1.17760193 55.46875 1.1796875 C56.59696167 1.17873077 57.72517334 1.17777405 58.88757324 1.17678833 C61.27840226 1.17610632 63.66923311 1.17796203 66.06005859 1.18212891 C69.73409151 1.18747684 73.40800217 1.18218457 77.08203125 1.17578125 C79.39843777 1.17644203 81.71484422 1.17772318 84.03125 1.1796875 C85.1385144 1.17766327 86.24577881 1.17563904 87.38659668 1.17355347 C88.40435181 1.17670563 89.42210693 1.17985779 90.47070312 1.18310547 C91.82186218 1.18429886 91.82186218 1.18429886 93.20031738 1.18551636 C95.25 1.3125 95.25 1.3125 96.25 2.3125 C96.3487544 4.20847306 96.37632197 6.10817079 96.37698364 8.00671387 C96.37980347 9.24352402 96.38262329 10.48033417 96.38552856 11.75462341 C96.38358397 13.13784804 96.38153578 14.52107253 96.37939453 15.90429688 C96.38074853 17.35107975 96.38252845 18.79786229 96.38470459 20.24464417 C96.38927909 24.18461762 96.3874893 28.12456502 96.3843255 32.06453896 C96.38180199 36.17872821 96.38413942 40.29291516 96.38571167 44.40710449 C96.38753339 51.31746829 96.38512699 58.22782142 96.38037109 65.13818359 C96.37492847 73.13899767 96.37669112 81.13978627 96.3821975 89.14059973 C96.38672856 95.99748119 96.38737921 102.85435496 96.38475883 109.71123743 C96.38319602 113.81200739 96.38300241 117.91276535 96.38629532 122.01353455 C96.38917393 125.86792639 96.38719853 129.72228524 96.38140106 133.57667351 C96.38007341 134.99530418 96.38046767 136.41393762 96.38266373 137.83256721 C96.38537499 139.76113921 96.38138062 141.68971724 96.37698364 143.61828613 C96.3764181 145.24099804 96.3764181 145.24099804 96.37584114 146.896492 C96.25 149.3125 96.25 149.3125 95.25 150.3125 C93.6593669 150.41104422 92.06438523 150.44048694 90.47070312 150.44189453 C89.452948 150.44504669 88.43519287 150.44819885 87.38659668 150.45144653 C85.72570007 150.44841019 85.72570007 150.44841019 84.03125 150.4453125 C82.90303833 150.44626923 81.77482666 150.44722595 80.61242676 150.44821167 C78.22159774 150.44889368 75.83076689 150.44703797 73.43994141 150.44287109 C69.76590849 150.43752316 66.09199783 150.44281543 62.41796875 150.44921875 C60.10156223 150.44855797 57.78515578 150.44727682 55.46875 150.4453125 C54.3614856 150.44733673 53.25422119 150.44936096 52.11340332 150.45144653 C50.58677063 150.44671829 50.58677063 150.44671829 49.02929688 150.44189453 C48.12852417 150.44109894 47.22775146 150.44030334 46.29968262 150.43948364 C44.25 150.3125 44.25 150.3125 43.25 149.3125 C43.17674832 146.44982433 43.15761795 143.611781 43.1875 140.75 C43.19201172 139.94369141 43.19652344 139.13738281 43.20117188 138.30664062 C43.21299482 136.30856244 43.23093086 134.31052217 43.25 132.3125 C42.59 132.3125 41.93 132.3125 41.25 132.3125 C41.00121094 132.89128906 40.75242187 133.47007812 40.49609375 134.06640625 C35.70935672 142.69453726 26.09932899 146.94258008 17.1953125 150.0234375 C1.24367679 154.59050333 -15.28601566 152.09942226 -29.75 144.3125 C-33.00788482 142.21744455 -35.88917709 139.9187816 -38.75 137.3125 C-39.79607422 136.38630859 -39.79607422 136.38630859 -40.86328125 135.44140625 C-45.97910477 130.65314958 -49.44350001 125.46021406 -52.75 119.3125 C-53.11867188 118.66667969 -53.48734375 118.02085937 -53.8671875 117.35546875 C-65.4723762 95.98932677 -65.2756481 68.33622155 -58.68359375 45.37890625 C-53.37524748 29.38379026 -42.78287058 14.60103538 -27.640625 6.6875 C-18.30835946 2.21489348 -10.29870853 -0.06916527 0 0 Z M-1.33984375 52.84765625 C-7.49182158 59.4508794 -9.29181739 66.35654785 -9.125 75.25 C-9.11339844 76.04269287 -9.10179687 76.83538574 -9.08984375 77.65209961 C-8.82408666 87.14216805 -6.78886642 93.35251546 -0.125 100.359375 C4.8645395 104.46261472 10.94816218 106.41713589 17.375 106.75 C25.414572 105.84230639 31.84651524 103.53591652 37.25 97.3125 C43.58029459 88.01385484 44.26854628 78.29725802 43.25 67.3125 C41.74861924 60.67210738 38.51822741 54.70463638 33.25 50.3125 C22.02054668 43.47899223 8.43463699 43.40939843 -1.33984375 52.84765625 Z " fill="#000000" transform="translate(1046.75,593.6875)"/>
<path d="M0 0 C0.99773437 -0.00315216 1.99546875 -0.00630432 3.0234375 -0.009552 C4.65152344 -0.00651566 4.65152344 -0.00651566 6.3125 -0.00341797 C7.41851563 -0.00437469 8.52453125 -0.00533142 9.6640625 -0.00631714 C12.00781308 -0.00699913 14.35156553 -0.00514351 16.6953125 -0.00097656 C20.29691788 0.00437139 23.89839853 -0.00092093 27.5 -0.00732422 C29.77083361 -0.00666344 32.04166714 -0.00538229 34.3125 -0.00341797 C35.94058594 -0.00645432 35.94058594 -0.00645432 37.6015625 -0.009552 C38.59929687 -0.00639984 39.59703125 -0.00324768 40.625 0 C41.50800781 0.00079559 42.39101562 0.00159119 43.30078125 0.00241089 C45.3125 0.12939453 45.3125 0.12939453 46.3125 1.12939453 C46.40786242 4.29552116 46.43800636 7.43980081 46.42602539 10.60620117 C46.42617142 11.6012114 46.42631744 12.59622162 46.4264679 13.62138367 C46.42576831 16.92746115 46.41797379 20.23348308 46.41015625 23.53955078 C46.40829223 25.82498646 46.40686825 28.11042254 46.40586853 30.39585876 C46.40204207 36.4243784 46.3922107 42.45287412 46.38116455 48.48138428 C46.37095317 54.62772294 46.3663715 60.77406546 46.36132812 66.92041016 C46.35058854 78.99008215 46.3335106 91.05973636 46.3125 103.12939453 C49.15586562 100.33893951 51.52382334 97.59260097 53.78125 94.30517578 C54.42900391 93.36706055 55.07675781 92.42894531 55.74414062 91.46240234 C56.42669922 90.46563477 57.10925781 89.46886719 57.8125 88.44189453 C59.24954642 86.35955019 60.6870503 84.27752147 62.125 82.19580078 C62.83398438 81.16729004 63.54296875 80.1387793 64.2734375 79.07910156 C84.22563673 50.2162578 84.22563673 50.2162578 87.3125 47.12939453 C89.1843094 47.03553072 91.0596806 47.01195649 92.93383789 47.01586914 C94.73559227 47.01598244 94.73559227 47.01598244 96.57374573 47.01609802 C97.8810112 47.02125931 99.18827667 47.02642059 100.53515625 47.03173828 C101.87894132 47.03360255 103.22272707 47.03502641 104.56651306 47.036026 C108.10932277 47.03985051 111.6520917 47.04968022 115.19488525 47.06072998 C118.80765227 47.07094554 122.42042584 47.07552393 126.03320312 47.08056641 C133.1263188 47.09130255 140.21940674 47.10837817 147.3125 47.12939453 C147.3125 52.1889703 145.23453718 54.14695935 142.125 57.81689453 C141.01381073 59.16435877 139.90450172 60.51337532 138.796875 61.86376953 C138.22001953 62.564375 137.64316406 63.26498047 137.04882812 63.98681641 C134.24157704 67.45088214 131.56213807 71.00940184 128.875 74.56689453 C124.09055186 80.87503402 119.16007295 87.04052379 114.13500977 93.15795898 C109.71672311 98.56524405 105.50206381 104.10830073 101.35717773 109.72729492 C98.46330876 113.64294847 95.46458462 117.41770069 92.3125 121.12939453 C93.60358381 123.89594871 95.0189804 126.1790152 96.96484375 128.52783203 C97.48812256 129.16454834 98.01140137 129.80126465 98.55053711 130.45727539 C99.11135986 131.13282471 99.67218262 131.80837402 100.25 132.50439453 C101.43846555 133.95021597 102.62595009 135.39684431 103.8125 136.84423828 C104.40546875 137.56724121 104.9984375 138.29024414 105.609375 139.03515625 C108.03147957 142.0134838 110.39330964 145.03673797 112.75 148.06689453 C117.50126751 154.15984121 122.3965452 160.12720199 127.32080078 166.08081055 C131.06768775 170.6117971 134.77975637 175.1657488 138.421875 179.78173828 C139.86113313 181.56891624 141.33668753 183.32693057 142.828125 185.07080078 C143.66859375 186.05951172 144.5090625 187.04822266 145.375 188.06689453 C146.14972656 188.96279297 146.92445313 189.85869141 147.72265625 190.78173828 C148.24730469 191.55646484 148.77195312 192.33119141 149.3125 193.12939453 C148.9825 194.11939453 148.6525 195.10939453 148.3125 196.12939453 C140.48046078 196.33846875 132.64908177 196.49810635 124.81494808 196.59570408 C121.17648809 196.64256346 117.53994466 196.70604319 113.90258789 196.80834961 C110.38811691 196.9065743 106.87548126 196.96003675 103.35974312 196.98328972 C101.37454199 197.00787114 99.39007413 197.07806803 97.4059906 197.14906311 C88.62793529 197.15395125 88.62793529 197.15395125 85.1293335 194.4289856 C83.26416048 192.09502044 81.79218758 189.72348825 80.3125 187.12939453 C79.19387032 185.46406451 78.06790329 183.80364222 76.93505859 182.14794922 C75.77344277 180.368051 74.61553303 178.58572972 73.4609375 176.80126953 C72.18500029 174.84807629 70.90895547 172.89495334 69.6328125 170.94189453 C67.65158284 167.89960851 65.67234389 164.85605115 63.6953125 161.81103516 C61.76816961 158.84605345 59.83370273 155.88595381 57.8984375 152.92626953 C57.31186371 152.01786316 56.72528992 151.10945679 56.12094116 150.17352295 C53.17535296 145.67569046 50.30691254 141.73996243 46.3125 138.12939453 C46.31472061 138.84127426 46.31694122 139.55315399 46.31922913 140.28660583 C46.33923253 146.98213688 46.35447438 153.67765964 46.36431217 160.37321377 C46.36953982 163.81579801 46.37663531 167.25835765 46.38793945 170.70092773 C46.40084235 174.65494496 46.40572918 178.60895209 46.41015625 182.56298828 C46.41531754 183.80463242 46.42047882 185.04627655 46.42579651 186.32554626 C46.42587204 187.46665359 46.42594757 188.60776093 46.42602539 189.78344727 C46.428246 190.79382553 46.43046661 191.8042038 46.43275452 192.84519958 C46.3125 195.12939453 46.3125 195.12939453 45.3125 196.12939453 C43.75250952 196.2278642 42.18809456 196.25738071 40.625 196.25878906 C39.62726563 196.26194122 38.62953125 196.26509338 37.6015625 196.26834106 C36.51617188 196.26631683 35.43078125 196.2642926 34.3125 196.26220703 C33.20648437 196.26316376 32.10046875 196.26412048 30.9609375 196.2651062 C28.61718692 196.2657882 26.27343447 196.26393257 23.9296875 196.25976562 C20.32808212 196.25441767 16.72660147 196.25971 13.125 196.26611328 C10.85416639 196.2654525 8.58333286 196.26417135 6.3125 196.26220703 C5.22710938 196.26423126 4.14171875 196.26625549 3.0234375 196.26834106 C2.02570313 196.2651889 1.02796875 196.26203674 0 196.25878906 C-0.88300781 196.25799347 -1.76601562 196.25719788 -2.67578125 196.25637817 C-4.6875 196.12939453 -4.6875 196.12939453 -5.6875 195.12939453 C-5.78744659 192.62755619 -5.8219141 190.153262 -5.81448364 187.65087891 C-5.81604363 186.85852089 -5.81760362 186.06616287 -5.81921089 185.24979401 C-5.8232241 182.57422569 -5.82003001 179.89871335 -5.81689453 177.22314453 C-5.81824843 175.31331346 -5.8200283 173.40348265 -5.82220459 171.49365234 C-5.82678028 166.29132452 -5.82498881 161.08901642 -5.8218255 155.88668823 C-5.8193026 150.45521998 -5.82163924 145.02375347 -5.82321167 139.59228516 C-5.82503357 130.46923518 -5.82262652 121.34619328 -5.81787109 112.22314453 C-5.81242844 101.65934858 -5.81419108 91.09557192 -5.8196975 80.53177643 C-5.82422805 71.4795846 -5.82487946 62.42739859 -5.82225883 53.37520599 C-5.82069573 47.96099023 -5.82050318 42.54678355 -5.82379532 37.13256836 C-5.82667319 32.04373262 -5.8246999 26.95492189 -5.81890106 21.86608887 C-5.81757301 19.99271689 -5.81796834 18.11934284 -5.82016373 16.24597168 C-5.82287347 13.69992227 -5.81949628 11.1539543 -5.81448364 8.60791016 C-5.81671436 7.85666115 -5.81894509 7.10541214 -5.82124341 6.33139801 C-5.7991461 0.59339703 -5.70076625 0.00513641 0 0 Z " fill="#000000" transform="translate(1299.6875,547.87060546875)"/>
<path d="M0 0 C0.88171875 0.26683594 1.7634375 0.53367187 2.671875 0.80859375 C17.86285931 6.11600286 27.71017811 17.53110952 34.5546875 31.5703125 C36.86540064 37.05357234 38.42755754 42.01419447 38 48 C36.46183095 49.53816905 34.99518734 49.19531236 32.85083008 49.2722168 C31.96933792 49.30441818 31.08784576 49.33661957 30.17964172 49.36979675 C26.12940889 49.48033468 22.07934107 49.56287838 18.02807617 49.62475586 C15.89283063 49.66641998 13.75787434 49.72779234 11.6237793 49.80932617 C-6.23329946 50.48074901 -6.23329946 50.48074901 -10.58837891 46.83056641 C-12.11328125 44.14453125 -12.11328125 44.14453125 -13.0012207 41.45629883 C-14.3125141 38.23143379 -15.92737089 37.49431588 -19 36 C-24.45286096 34.20327187 -30.0581997 34.41052491 -35.5 36.0625 C-38.29636276 37.86801194 -38.29636276 37.86801194 -39.1875 41.375 C-39.2943859 45.01584315 -39.2943859 45.01584315 -37.3125 47.6875 C-29.07048349 54.63214902 -14.60840693 55.90443617 -4.421875 58.26757812 C10.38828403 61.83147653 25.49177518 67.45085201 34 81 C36.4596939 86.40974478 38.49385323 92.05277549 39 98 C39.09474609 99.051875 39.09474609 99.051875 39.19140625 100.125 C39.73178079 111.00221646 36.1481518 120.91371589 29.45703125 129.4296875 C15.36756125 144.16875151 -3.26231719 148.37997215 -22.90869141 148.95947266 C-42.42231555 149.33762601 -61.68627734 143.59487404 -76.875 131.05859375 C-85.17646278 123.01655168 -93.10511271 111.74771697 -93.375 99.75 C-93 97 -93 97 -92 96 C-90.5126506 95.88092421 -89.01976613 95.8299312 -87.52783203 95.80712891 C-86.57659454 95.79106598 -85.62535706 95.77500305 -84.64529419 95.75845337 C-80.29071609 95.71419135 -75.93629314 95.67294335 -71.58154297 95.64990234 C-69.28065895 95.63332584 -66.97982678 95.60601385 -64.67919922 95.56787109 C-61.371797 95.51327783 -58.06560378 95.4912554 -54.7578125 95.4765625 C-53.726492 95.45389313 -52.69517151 95.43122375 -51.63259888 95.40786743 C-48.99297114 95.41572404 -46.58304497 95.45610414 -44 96 C-41.91699219 98.41088867 -41.91699219 98.41088867 -41 101 C-40.07818771 102.2567878 -39.1214703 103.48904248 -38.125 104.6875 C-37.65320312 105.26886719 -37.18140625 105.85023438 -36.6953125 106.44921875 C-32.79766017 110.01458275 -28.61114456 110.29458711 -23.5 110.3125 C-21.84484375 110.33763672 -21.84484375 110.33763672 -20.15625 110.36328125 C-16.38441664 109.92914697 -13.70508899 108.70508899 -11 106 C-10.47283901 101.13512974 -10.47283901 101.13512974 -12.56640625 96.91796875 C-15.58986234 94.53511652 -18.59371051 93.59645084 -22.25 92.625 C-22.97727295 92.42003906 -23.7045459 92.21507812 -24.45385742 92.00390625 C-29.99439004 90.46898628 -35.57802488 89.11874562 -41.16503906 87.76513672 C-66.56393002 81.59075538 -66.56393002 81.59075538 -76 73 C-76.70125 72.36449219 -77.4025 71.72898437 -78.125 71.07421875 C-85.77265652 63.38438766 -88.14732744 54.49085017 -88.4375 43.8125 C-87.98683922 30.68518747 -82.78447759 19.802044 -73.17578125 10.80859375 C-54.02584978 -5.1095719 -23.18259597 -7.31581922 0 0 Z " fill="#000000" transform="translate(1244,597)"/>
<path d="M0 0 C1.01775513 -0.00315216 2.03551025 -0.00630432 3.08410645 -0.009552 C4.19137085 -0.00752777 5.29863525 -0.00550354 6.43945312 -0.00341797 C7.56766479 -0.00437469 8.69587646 -0.00533142 9.85827637 -0.00631714 C12.24910538 -0.00699915 14.63993624 -0.00514344 17.03076172 -0.00097656 C20.70479464 0.00437137 24.37870529 -0.0009209 28.05273438 -0.00732422 C30.3691409 -0.00666344 32.68554734 -0.00538229 35.00195312 -0.00341797 C36.66284973 -0.00645432 36.66284973 -0.00645432 38.3572998 -0.009552 C39.37505493 -0.00639984 40.39281006 -0.00324768 41.44140625 0 C42.79256531 0.00119339 42.79256531 0.00119339 44.17102051 0.00241089 C46.22070312 0.12939453 46.22070312 0.12939453 47.22070312 1.12939453 C47.30918055 3.6503353 47.33597614 6.14370346 47.31835938 8.66455078 C47.31694443 9.41780136 47.31552948 10.17105194 47.31407166 10.9471283 C47.30845688 13.36209013 47.29590195 15.77696054 47.28320312 18.19189453 C47.27819002 19.82535674 47.27362679 21.45882039 47.26953125 23.09228516 C47.25848266 27.10469038 47.24120819 31.11702694 47.22070312 35.12939453 C48.0030835 35.12415771 48.78546387 35.1189209 49.59155273 35.11352539 C53.11376146 35.09282347 56.63595743 35.07975615 60.15820312 35.06689453 C61.38990234 35.05851563 62.62160156 35.05013672 63.890625 35.04150391 C65.06044922 35.03828125 66.23027344 35.03505859 67.43554688 35.03173828 C69.06157837 35.02388306 69.06157837 35.02388306 70.72045898 35.01586914 C73.22070312 35.12939453 73.22070312 35.12939453 74.22070312 36.12939453 C74.32187233 39.22020918 74.3603887 42.28822008 74.35351562 45.37939453 C74.35447235 46.3078418 74.35542908 47.23628906 74.35641479 48.19287109 C74.35709668 50.15999418 74.35524184 52.12711949 74.35107422 54.09423828 C74.34572608 57.11642479 74.35101895 60.13846268 74.35742188 63.16064453 C74.35676109 65.06689486 74.35547994 66.9731451 74.35351562 68.87939453 C74.35553986 69.78979492 74.35756409 70.70019531 74.35964966 71.63818359 C74.33565281 78.01444485 74.33565281 78.01444485 73.22070312 79.12939453 C71.29402805 79.2168766 69.36418451 79.23636787 67.43554688 79.22705078 C65.68081055 79.2222168 65.68081055 79.2222168 63.890625 79.21728516 C62.65892578 79.20890625 61.42722656 79.20052734 60.15820312 79.19189453 C58.30485352 79.18512695 58.30485352 79.18512695 56.4140625 79.17822266 C53.34956196 79.16639061 50.28515591 79.14990626 47.22070312 79.12939453 C47.33830515 86.74669627 47.46313672 94.36385482 47.59301758 101.98095703 C47.63635441 104.57272652 47.67803038 107.16452433 47.71801758 109.75634766 C47.77575014 113.47974181 47.83943642 117.20299357 47.90429688 120.92626953 C47.92100937 122.08680847 47.93772186 123.24734741 47.9549408 124.4430542 C47.98485863 126.06428192 47.98485863 126.06428192 48.01538086 127.71826172 C48.03869728 129.14389435 48.03869728 129.14389435 48.06248474 130.59832764 C48.20704968 132.91097628 48.57069567 134.91211723 49.22070312 137.12939453 C54.92663934 138.54408946 60.77827916 138.50244984 66.62304688 138.73486328 C67.45449219 138.77224609 68.2859375 138.80962891 69.14257812 138.84814453 C69.90151367 138.8784375 70.66044922 138.90873047 71.44238281 138.93994141 C73.22070312 139.12939453 73.22070312 139.12939453 74.22070312 140.12939453 C74.31855654 141.4748378 74.34868298 142.82532016 74.35009766 144.17431641 C74.35324982 145.03190552 74.35640198 145.88949463 74.35964966 146.77307129 C74.35661331 148.17148254 74.35661331 148.17148254 74.35351562 149.59814453 C74.35447235 150.54878784 74.35542908 151.49943115 74.35641479 152.47888184 C74.35709669 154.49308335 74.35524174 156.50728705 74.35107422 158.52148438 C74.3457261 161.61609808 74.3510189 164.71056663 74.35742188 167.80517578 C74.3567611 169.75699902 74.35547994 171.70882217 74.35351562 173.66064453 C74.35553986 174.5929187 74.35756409 175.52519287 74.35964966 176.48571777 C74.35492142 177.77210144 74.35492142 177.77210144 74.35009766 179.08447266 C74.34930206 179.84312622 74.34850647 180.60177979 74.34768677 181.38342285 C74.22070312 183.12939453 74.22070312 183.12939453 73.22070312 184.12939453 C53.38572338 185.41206087 28.25237614 186.27234811 12.05664062 172.84423828 C-0.07999782 161.50810152 -5.12540546 148.482757 -5.93319702 131.98654175 C-6.14868804 123.3675963 -6.05332505 114.7495595 -5.96679688 106.12939453 C-5.95172003 103.50440222 -5.93803695 100.87940153 -5.92578125 98.25439453 C-5.89302039 91.87920873 -5.84305984 85.50434175 -5.77929688 79.12939453 C-6.99488281 79.14099609 -8.21046875 79.15259766 -9.46289062 79.16455078 C-11.04752451 79.17392731 -12.63216005 79.18302766 -14.21679688 79.19189453 C-15.01923828 79.20027344 -15.82167969 79.20865234 -16.6484375 79.21728516 C-18.69224908 79.22590883 -20.73613589 79.18167603 -22.77929688 79.12939453 C-24.72793612 77.18075528 -23.90848427 74.23130733 -23.91824341 71.63818359 C-23.91621918 70.7277832 -23.91419495 69.81738281 -23.91210938 68.87939453 C-23.9130661 67.95094727 -23.91402283 67.0225 -23.91500854 66.06591797 C-23.91569043 64.09879489 -23.91383559 62.13166957 -23.90966797 60.16455078 C-23.90431983 57.14236427 -23.9096127 54.12032639 -23.91601562 51.09814453 C-23.91535484 49.1918942 -23.91407369 47.28564396 -23.91210938 45.37939453 C-23.91413361 44.46899414 -23.91615784 43.55859375 -23.91824341 42.62060547 C-23.89424656 36.24434422 -23.89424656 36.24434422 -22.77929688 35.12939453 C-19.91662121 35.05614285 -17.07857788 35.03701248 -14.21679688 35.06689453 C-13.41048828 35.07140625 -12.60417969 35.07591797 -11.7734375 35.08056641 C-9.77535931 35.09238935 -7.77731905 35.11032539 -5.77929688 35.12939453 C-5.7871521 33.59230835 -5.7871521 33.59230835 -5.79516602 32.02416992 C-5.81321656 28.23544177 -5.82472907 24.44671744 -5.83422852 20.65795898 C-5.83926861 19.01569989 -5.84610066 17.3734453 -5.85473633 15.73120117 C-5.86681613 13.37563974 -5.87252826 11.02013744 -5.87695312 8.66455078 C-5.88211441 7.92600357 -5.8872757 7.18745636 -5.89259338 6.42652893 C-5.89278937 4.66041365 -5.84124406 2.89442308 -5.77929688 1.12939453 C-4.13841943 -0.51148292 -2.26098625 0.00199698 0 0 Z " fill="#000000" transform="translate(908.779296875,559.87060546875)"/>
</svg>
